<svg width="26" height="26" viewBox="0 0 26 26" fill="none" xmlns="http://www.w3.org/2000/svg">
<g id="default / accommodation">
<g id="POI-base">
<g id="Category_Master">
<g id="Baseshape_Pin">
<path id="shape" d="M9.12903 20.4794L9.12726 20.4777C6.78964 18.19 5.64527 16.3664 5.07698 14.8457C4.50986 13.3281 4.5 12.0735 4.5 10.8565C4.5 6.24879 8.30485 2.5 12.9913 2.5C17.6791 2.5 21.5 6.25003 21.5 10.8565C21.5 12.0735 21.4901 13.3281 20.923 14.8457C20.3547 16.3664 19.2104 18.19 16.8728 20.4777L16.8717 20.4787L12.992 24.2977L9.12903 20.4794Z" fill="#5A7FCE" stroke="#3E5EA2"/>
</g>
</g>
<g id="Icon_Master">
<g id="accommodation">
<path id="Vector" d="M17.5 11.5H13V9.5H16.5C16.7652 9.5 17.0196 9.60536 17.2071 9.79289C17.3946 9.98043 17.5 10.2348 17.5 10.5V11.5ZM10 11.5V10.5C10 10.2348 10.1054 9.98043 10.2929 9.79289C10.4804 9.60536 10.7348 9.5 11 9.5C11.2652 9.5 11.5196 9.60536 11.7071 9.79289C11.8946 9.98043 12 10.2348 12 10.5V11.5H10ZM18 12.875C17.9987 12.7759 17.9588 12.6813 17.8887 12.6113C17.8187 12.5412 17.7241 12.5013 17.625 12.5H9V8.5H8V16H9V14.5H17V16H18V12.875Z" fill="white"/>
</g>
</g>
</g>
</g>
</svg>
