<svg width="26" height="26" viewBox="0 0 26 26" fill="none" xmlns="http://www.w3.org/2000/svg">
<g id="default / atm">
<g id="POI-base">
<g id="Category_Master">
<g id="Baseshape_Pin">
<path id="shape" d="M9.12903 20.4794L9.12726 20.4777C6.78964 18.19 5.64527 16.3664 5.07698 14.8457C4.50986 13.3281 4.5 12.0735 4.5 10.8565C4.5 6.24879 8.30485 2.5 12.9913 2.5C17.6791 2.5 21.5 6.25003 21.5 10.8565C21.5 12.0735 21.4901 13.3281 20.923 14.8457C20.3547 16.3664 19.2104 18.19 16.8728 20.4777L16.8717 20.4787L12.992 24.2977L9.12903 20.4794Z" fill="#A0B1DA" stroke="#7182AB"/>
</g>
</g>
<g id="Icon_Master">
<g id="atm">
<path id="Vector" d="M11.875 10.875H14.125V11.625H11.875V10.875ZM18 8.5V9.5C18 9.89782 17.842 10.2794 17.5607 10.5607C17.2794 10.842 16.8978 11 16.5 11H16V17H10V11H9.5C9.10218 11 8.72064 10.842 8.43934 10.5607C8.15804 10.2794 8 9.89782 8 9.5V8.5C8 8.10218 8.15804 7.72064 8.43934 7.43934C8.72064 7.15804 9.10218 7 9.5 7H16.5C16.8978 7 17.2794 7.15804 17.5607 7.43934C17.842 7.72064 18 8.10218 18 8.5ZM15 14H11V14.5L12 15.5H12.5V15H15V14ZM15 10.5C15 10.3674 14.9473 10.2402 14.8536 10.1464C14.7598 10.0527 14.6326 10 14.5 10H11.5C11.3674 10 11.2402 10.0527 11.1464 10.1464C11.0527 10.2402 11 10.3674 11 10.5V12C11 12.1326 11.0527 12.2598 11.1464 12.3536C11.2402 12.4473 11.3674 12.5 11.5 12.5H14.5C14.6326 12.5 14.7598 12.4473 14.8536 12.3536C14.9473 12.2598 15 12.1326 15 12V10.5ZM17 8H9V10H10V9H16V10H17V8Z" fill="white"/>
</g>
</g>
</g>
</g>
</svg>
