<svg width="26" height="26" viewBox="0 0 26 26" fill="none" xmlns="http://www.w3.org/2000/svg">
<g id="default / attraction">
<g id="POI-base">
<g id="Category_Master">
<g id="Baseshape_Pin">
<path id="shape" d="M9.12903 20.4794L9.12726 20.4777C6.78964 18.19 5.64527 16.3664 5.07698 14.8457C4.50986 13.3281 4.5 12.0735 4.5 10.8565C4.5 6.24879 8.30485 2.5 12.9913 2.5C17.6791 2.5 21.5 6.25003 21.5 10.8565C21.5 12.0735 21.4901 13.3281 20.923 14.8457C20.3547 16.3664 19.2104 18.19 16.8728 20.4777L16.8717 20.4787L12.992 24.2977L9.12903 20.4794Z" fill="#CD81DA" stroke="#8F5EAB"/>
</g>
</g>
<g id="Icon_Master">
<g id="attraction">
<path id="Vector" d="M16 12.25C16 12.4972 15.9267 12.7389 15.7893 12.9445C15.652 13.15 15.4568 13.3102 15.2284 13.4048C14.9999 13.4995 14.7486 13.5242 14.5061 13.476C14.2637 13.4278 14.0409 13.3087 13.8661 13.1339C13.6913 12.9591 13.5722 12.7363 13.524 12.4939C13.4758 12.2514 13.5005 12.0001 13.5952 11.7716C13.6898 11.5432 13.85 11.348 14.0555 11.2107C14.2611 11.0733 14.5028 11 14.75 11C15.0815 11 15.3995 11.1317 15.6339 11.3661C15.8683 11.6005 16 11.9185 16 12.25ZM18 9V14.5C18 14.7652 17.8946 15.0196 17.7071 15.2071C17.5196 15.3946 17.2652 15.5 17 15.5H9C8.73478 15.5 8.48043 15.3946 8.29289 15.2071C8.10536 15.0196 8 14.7652 8 14.5V9H9.5V8H11.5V9H18ZM11.5 10H9.5V11H11.5V10ZM17 12.25C17 11.805 16.868 11.37 16.6208 11C16.3736 10.63 16.0222 10.3416 15.611 10.1713C15.1999 10.001 14.7475 9.95642 14.311 10.0432C13.8746 10.13 13.4737 10.3443 13.159 10.659C12.8443 10.9737 12.63 11.3746 12.5432 11.811C12.4564 12.2475 12.501 12.6999 12.6713 13.111C12.8416 13.5222 13.13 13.8736 13.5 14.1208C13.87 14.368 14.305 14.5 14.75 14.5C15.0457 14.5007 15.3385 14.4429 15.6118 14.3301C15.8851 14.2172 16.1334 14.0515 16.3425 13.8425C16.5515 13.6334 16.7172 13.3851 16.8301 13.1118C16.9429 12.8385 17.0007 12.5457 17 12.25Z" fill="white"/>
</g>
</g>
</g>
</g>
</svg>
