<svg width="26" height="26" viewBox="0 0 26 26" fill="none" xmlns="http://www.w3.org/2000/svg">
<g id="default / bookstore">
<g id="POI-base">
<g id="Category_Master">
<g id="Baseshape_Pin">
<path id="shape" d="M9.12903 20.4794L9.12726 20.4777C6.78964 18.19 5.64527 16.3664 5.07698 14.8457C4.50986 13.3281 4.5 12.0735 4.5 10.8565C4.5 6.24879 8.30485 2.5 12.9913 2.5C17.6791 2.5 21.5 6.25003 21.5 10.8565C21.5 12.0735 21.4901 13.3281 20.923 14.8457C20.3547 16.3664 19.2104 18.19 16.8728 20.4777L16.8717 20.4787L12.992 24.2977L9.12903 20.4794Z" fill="#E265A7" stroke="#9E4C88"/>
</g>
</g>
<g id="Icon_Master">
<g id="bookstore">
<path id="Vector" d="M10.92 7C9.445 7.835 8.64 8.665 8.5 9.5V16.5C8.5 16.6326 8.55268 16.7598 8.64645 16.8536C8.74021 16.9473 8.86739 17 9 17H15.5V9.5H9.535C9.655 9.21 10.035 8.69 11.185 8H17V15.5H18V7H10.92ZM10 12H14V13H10V12Z" fill="white"/>
</g>
</g>
</g>
</g>
</svg>
