<svg width="26" height="26" viewBox="0 0 26 26" fill="none" xmlns="http://www.w3.org/2000/svg">
<g id="default / bowling">
<g id="POI-base">
<g id="Category_Master">
<g id="Baseshape_Pin">
<path id="shape" d="M9.12903 20.4794L9.12726 20.4777C6.78964 18.19 5.64527 16.3664 5.07698 14.8457C4.50986 13.3281 4.5 12.0735 4.5 10.8565C4.5 6.24879 8.30485 2.5 12.9913 2.5C17.6791 2.5 21.5 6.25003 21.5 10.8565C21.5 12.0735 21.4901 13.3281 20.923 14.8457C20.3547 16.3664 19.2104 18.19 16.8728 20.4777L16.8717 20.4787L12.992 24.2977L9.12903 20.4794Z" fill="#C19D95" stroke="#87737B"/>
</g>
</g>
<g id="Icon_Master">
<g id="bowling">
<path id="Vector" d="M14.345 9.69006C13.3941 9.69228 12.4821 10.0675 11.805 10.7351C11.8975 10.9243 12.0011 11.1079 12.115 11.2851C12.547 11.8669 12.8006 12.5617 12.845 13.2851C12.7441 14.3135 12.5517 15.3308 12.27 16.3251C12.8749 16.7599 13.6001 16.9958 14.345 17.0001C15.3144 17.0001 16.244 16.615 16.9295 15.9295C17.6149 15.2441 18 14.3144 18 13.3451C18 12.3757 17.6149 11.446 16.9295 10.7606C16.244 10.0751 15.3144 9.69006 14.345 9.69006ZM14.565 12.1901C14.5575 12.1104 14.5668 12.03 14.5922 11.9541C14.6176 11.8782 14.6585 11.8085 14.7124 11.7493C14.7663 11.6901 14.8319 11.6429 14.9051 11.6105C14.9783 11.5782 15.0575 11.5615 15.1375 11.5615C15.2175 11.5615 15.2967 11.5782 15.3699 11.6105C15.4431 11.6429 15.5087 11.6901 15.5626 11.7493C15.6165 11.8085 15.6574 11.8782 15.6828 11.9541C15.7082 12.03 15.7175 12.1104 15.71 12.1901C15.7175 12.2697 15.7082 12.3501 15.6828 12.426C15.6574 12.5019 15.6165 12.5716 15.5626 12.6308C15.5087 12.69 15.4431 12.7372 15.3699 12.7696C15.2967 12.8019 15.2175 12.8186 15.1375 12.8186C15.0575 12.8186 14.9783 12.8019 14.9051 12.7696C14.8319 12.7372 14.7663 12.69 14.7124 12.6308C14.6585 12.5716 14.6176 12.5019 14.5922 12.426C14.5668 12.3501 14.5575 12.2697 14.565 12.1901ZM15.525 14.3051C15.4097 14.307 15.2964 14.2746 15.1996 14.2119C15.1028 14.1491 15.0269 14.059 14.9816 13.9529C14.9363 13.8468 14.9237 13.7296 14.9453 13.6163C14.967 13.503 15.0219 13.3987 15.1031 13.3168C15.1843 13.2349 15.2881 13.1791 15.4012 13.1564C15.5143 13.1338 15.6316 13.1454 15.7381 13.1898C15.8446 13.2341 15.9354 13.3092 15.999 13.4055C16.0625 13.5017 16.096 13.6147 16.095 13.7301C16.0957 13.8056 16.0814 13.8805 16.0532 13.9505C16.0249 14.0205 15.9831 14.0843 15.9301 14.1381C15.8772 14.192 15.8142 14.2349 15.7447 14.2644C15.6752 14.2939 15.6005 14.3094 15.525 14.3101V14.3051ZM16.685 13.1501C16.6097 13.1501 16.5352 13.1352 16.4657 13.1062C16.3962 13.0772 16.3332 13.0348 16.2802 12.9813C16.2272 12.9279 16.1853 12.8645 16.1569 12.7947C16.1286 12.725 16.1143 12.6503 16.115 12.5751C16.115 12.4611 16.1489 12.3498 16.2123 12.2551C16.2757 12.1604 16.3658 12.0867 16.4711 12.0434C16.5765 12 16.6924 11.9889 16.804 12.0115C16.9157 12.0341 17.0181 12.0894 17.0984 12.1703C17.1786 12.2512 17.2329 12.3541 17.2546 12.466C17.2762 12.5778 17.2641 12.6936 17.2198 12.7986C17.1755 12.9036 17.101 12.993 17.0058 13.0556C16.9106 13.1182 16.7989 13.1511 16.685 13.1501ZM10.685 10.3301C10.685 11.4401 11.84 12.1801 11.84 13.2901C11.6915 14.4122 11.4677 15.523 11.17 16.6151C11.1426 16.726 11.0781 16.8242 10.9871 16.8934C10.8961 16.9625 10.7842 16.9984 10.67 16.9951H9.17C9.05578 16.9984 8.94387 16.9625 8.8529 16.8934C8.76192 16.8242 8.69738 16.726 8.67 16.6151C8.37035 15.5252 8.14648 14.4159 8 13.2951C8 12.1851 9.155 11.4451 9.155 10.3351C9.155 10.3351 9.155 10.0251 9.125 9.83506L8.795 8.33506C8.78735 8.25858 8.78735 8.18154 8.795 8.10506C8.8028 7.81013 8.92513 7.52983 9.13606 7.32356C9.347 7.11729 9.62997 7.00126 9.925 7.00006C10.2252 6.9947 10.5153 7.10849 10.7317 7.31653C10.9482 7.52457 11.0734 7.8099 11.08 8.11006C11.08 8.20482 11.0665 8.29909 11.04 8.39006L10.72 9.84006C10.7 10.0251 10.69 10.3351 10.69 10.3351L10.685 10.3301Z" fill="white"/>
</g>
</g>
</g>
</g>
</svg>
