<svg width="26" height="26" viewBox="0 0 26 26" fill="none" xmlns="http://www.w3.org/2000/svg">
<g id="default / camping">
<g id="POI-base">
<g id="Category_Master">
<g id="Baseshape_Pin">
<path id="shape" d="M9.12903 20.4794L9.12726 20.4777C6.78964 18.19 5.64527 16.3664 5.07698 14.8457C4.50986 13.3281 4.5 12.0735 4.5 10.8565C4.5 6.24879 8.30485 2.5 12.9913 2.5C17.6791 2.5 21.5 6.25003 21.5 10.8565C21.5 12.0735 21.4901 13.3281 20.923 14.8457C20.3547 16.3664 19.2104 18.19 16.8728 20.4777L16.8717 20.4787L12.992 24.2977L9.12903 20.4794Z" fill="#5A7FCE" stroke="#3E5EA2"/>
</g>
</g>
<g id="Icon_Master">
<g id="camping">
<path id="Vector" d="M17.335 16L13.5 9.22L14.755 7H13.755L13 8.335L12.25 7H11.25L12.5 9.22L8.675 16H8V17H18V16H17.335ZM13 12.75L14.855 16H11.17L13 12.75Z" fill="white"/>
</g>
</g>
</g>
</g>
</svg>
