<svg width="26" height="26" viewBox="0 0 26 26" fill="none" xmlns="http://www.w3.org/2000/svg">
<g id="default / car-repair">
<g id="POI-base">
<g id="Category_Master">
<g id="Baseshape_Pin">
<path id="shape" d="M9.12903 20.4794L9.12726 20.4777C6.78964 18.19 5.64527 16.3664 5.07698 14.8457C4.50986 13.3281 4.5 12.0735 4.5 10.8565C4.5 6.24879 8.30485 2.5 12.9913 2.5C17.6791 2.5 21.5 6.25003 21.5 10.8565C21.5 12.0735 21.4901 13.3281 20.923 14.8457C20.3547 16.3664 19.2104 18.19 16.8728 20.4777L16.8717 20.4787L12.992 24.2977L9.12903 20.4794Z" fill="#A0B1DA" stroke="#7182AB"/>
</g>
</g>
<g id="Icon_Master">
<g id="car-repair">
<path id="Vector" d="M16.235 7.86V8H14.5V9H16.235V9.145C16.2337 9.37222 16.1425 9.58968 15.9814 9.74988C15.8202 9.91008 15.6022 10 15.375 10H13.735L13.36 9.25H9.75C9.65143 9.15155 9.57323 9.03464 9.51988 8.90595C9.46653 8.77726 9.43907 8.63931 9.43907 8.5C9.43907 8.36069 9.46653 8.22274 9.51988 8.09405C9.57323 7.96536 9.65143 7.84845 9.75 7.75H13.365L13.735 7H15.38C15.6072 7.00132 15.8247 7.09251 15.9849 7.25365C16.1451 7.41479 16.235 7.63278 16.235 7.86ZM17.735 12.5C17.8126 12.5582 17.8756 12.6337 17.919 12.7205C17.9624 12.8073 17.985 12.903 17.985 13C17.985 13.097 17.9624 13.1927 17.919 13.2795C17.8756 13.3663 17.8126 13.4418 17.735 13.5H17.5V16.5C17.5 16.6326 17.4473 16.7598 17.3536 16.8536C17.2598 16.9473 17.1326 17 17 17H15.5C15.3674 17 15.2402 16.9473 15.1464 16.8536C15.0527 16.7598 15 16.6326 15 16.5V16H11V16.5C11 16.6326 10.9473 16.7598 10.8536 16.8536C10.7598 16.9473 10.6326 17 10.5 17H9C8.86739 17 8.74021 16.9473 8.64645 16.8536C8.55268 16.7598 8.5 16.6326 8.5 16.5V13.5H8.25C8.17238 13.4418 8.10938 13.3663 8.06598 13.2795C8.02259 13.1927 8 13.097 8 13C8 12.903 8.02259 12.8073 8.06598 12.7205C8.10938 12.6337 8.17238 12.5582 8.25 12.5H9.12L9.62 11.35C9.72569 11.1009 9.90156 10.8879 10.1262 10.737C10.3508 10.5861 10.6144 10.5037 10.885 10.5H15.115C15.3839 10.5056 15.6454 10.5889 15.868 10.7397C16.0907 10.8905 16.265 11.1024 16.37 11.35L16.87 12.5H17.735ZM10 13H16L15.445 11.755C15.4185 11.6845 15.3725 11.6231 15.3122 11.5779C15.252 11.5327 15.1801 11.5057 15.105 11.5H10.885C10.8099 11.5057 10.738 11.5327 10.6778 11.5779C10.6175 11.6231 10.5715 11.6845 10.545 11.755L10 13ZM11 14H9.75C9.67238 14.0582 9.60938 14.1337 9.56598 14.2205C9.52259 14.3073 9.5 14.403 9.5 14.5C9.5 14.597 9.52259 14.6927 9.56598 14.7795C9.60938 14.8663 9.67238 14.9418 9.75 15H11V14ZM16.25 14H15V15H16.25C16.3276 14.9418 16.3906 14.8663 16.434 14.7795C16.4774 14.6927 16.5 14.597 16.5 14.5C16.5 14.403 16.4774 14.3073 16.434 14.2205C16.3906 14.1337 16.3276 14.0582 16.25 14Z" fill="white"/>
</g>
</g>
</g>
</g>
</svg>
