<svg width="26" height="26" viewBox="0 0 26 26" fill="none" xmlns="http://www.w3.org/2000/svg">
<g id="default / car-dealership">
<g id="POI-base">
<g id="Category_Master">
<g id="Baseshape_Pin">
<path id="shape" d="M9.12903 20.4794L9.12726 20.4777C6.78964 18.19 5.64527 16.3664 5.07698 14.8457C4.50986 13.3281 4.5 12.0735 4.5 10.8565C4.5 6.24879 8.30485 2.5 12.9913 2.5C17.6791 2.5 21.5 6.25003 21.5 10.8565C21.5 12.0735 21.4901 13.3281 20.923 14.8457C20.3547 16.3664 19.2104 18.19 16.8728 20.4777L16.8717 20.4787L12.992 24.2977L9.12903 20.4794Z" fill="#A0B1DA" stroke="#7182AB"/>
</g>
</g>
<g id="Icon_Master">
<g id="car-dealership">
<path id="Vector" d="M16.88 12.5L16.38 11.35C16.2845 11.1205 16.1293 10.9207 15.9307 10.7712C15.732 10.6218 15.497 10.5281 15.25 10.5V11.525C15.3431 11.5705 15.4162 11.6489 15.455 11.745L16 13H10L10.555 11.755C10.5938 11.6589 10.6669 11.5805 10.76 11.535V10.5C10.513 10.5281 10.278 10.6218 10.0793 10.7712C9.88065 10.9207 9.72553 11.1205 9.63 11.35L9.13 12.5H8.25C8.17238 12.5582 8.10938 12.6337 8.06598 12.7205C8.02259 12.8073 8 12.903 8 13C8 13.097 8.02259 13.1927 8.06598 13.2795C8.10938 13.3663 8.17238 13.4418 8.25 13.5H8.5V16.5C8.5 16.6326 8.55268 16.7598 8.64645 16.8536C8.74021 16.9473 8.86739 17 9 17H10.5C10.6326 17 10.7598 16.9473 10.8536 16.8536C10.9473 16.7598 11 16.6326 11 16.5V16H15V16.5C15 16.6326 15.0527 16.7598 15.1464 16.8536C15.2402 16.9473 15.3674 17 15.5 17H17C17.1326 17 17.2598 16.9473 17.3536 16.8536C17.4473 16.7598 17.5 16.6326 17.5 16.5V13.5H17.75C17.8276 13.4418 17.8906 13.3663 17.934 13.2795C17.9774 13.1927 18 13.097 18 13C18 12.903 17.9774 12.8073 17.934 12.7205C17.8906 12.6337 17.8276 12.5582 17.75 12.5H16.88ZM11 15H9.75C9.67238 14.9418 9.60938 14.8663 9.56598 14.7795C9.52259 14.6927 9.5 14.597 9.5 14.5C9.5 14.403 9.52259 14.3073 9.56598 14.2205C9.60938 14.1337 9.67238 14.0582 9.75 14H11V15ZM16.25 15H15V14H16.25C16.3276 14.0582 16.3906 14.1337 16.434 14.2205C16.4774 14.3073 16.5 14.403 16.5 14.5C16.5 14.597 16.4774 14.6927 16.434 14.7795C16.3906 14.8663 16.3276 14.9418 16.25 15ZM12.945 11.08C12.594 11.0783 12.2566 10.9444 12 10.705L11.9 10.63L11.345 11.25L11.43 11.335C11.7264 11.6145 12.0985 11.8006 12.5 11.87V12.5H13.5V11.86C13.8078 11.8102 14.0879 11.6526 14.2903 11.4154C14.4927 11.1782 14.6043 10.8768 14.605 10.565C14.605 9.75 14.105 9.42 13.33 9.18C12.665 8.975 12.595 8.865 12.595 8.68C12.595 8.36 12.94 8.33 13.095 8.33C13.397 8.33004 13.6885 8.44027 13.915 8.64L14.01 8.72L14.545 8.1L14.45 8C14.1878 7.74571 13.8581 7.57215 13.5 7.5V7H12.5V7.565C12.2352 7.62255 11.9977 7.76802 11.8261 7.97774C11.6545 8.18745 11.559 8.44906 11.555 8.72C11.555 9.375 11.93 9.76 12.85 10.045C13.485 10.24 13.555 10.37 13.555 10.605C13.555 11.045 13.085 11.08 12.945 11.08Z" fill="white"/>
</g>
</g>
</g>
</g>
</svg>
