<svg width="26" height="26" viewBox="0 0 26 26" fill="none" xmlns="http://www.w3.org/2000/svg">
<g id="default / cinema">
<g id="POI-base">
<g id="Category_Master">
<g id="Baseshape_Pin">
<path id="shape" d="M9.12903 20.4794L9.12726 20.4777C6.78964 18.19 5.64527 16.3664 5.07698 14.8457C4.50986 13.3281 4.5 12.0735 4.5 10.8565C4.5 6.24879 8.30485 2.5 12.9913 2.5C17.6791 2.5 21.5 6.25003 21.5 10.8565C21.5 12.0735 21.4901 13.3281 20.923 14.8457C20.3547 16.3664 19.2104 18.19 16.8728 20.4777L16.8717 20.4787L12.992 24.2977L9.12903 20.4794Z" fill="#ED97C2" stroke="#A66F9A"/>
</g>
</g>
<g id="Icon_Master">
<g id="cinema">
<path id="Vector" d="M14.1249 11.5C14.5434 11.4999 14.9535 11.383 15.3093 11.1626C15.665 10.9422 15.9522 10.627 16.1387 10.2523C16.3251 9.87761 16.4033 9.45837 16.3646 9.04168C16.3258 8.625 16.1716 8.22737 15.9193 7.89349C15.667 7.55962 15.3266 7.30272 14.9363 7.15167C14.5461 7.00063 14.1214 6.96142 13.71 7.03845C13.2987 7.11548 12.917 7.30571 12.6078 7.58774C12.2987 7.86978 12.0743 8.23245 11.9599 8.635C11.7869 8.35965 11.545 8.13418 11.2582 7.98086C10.9714 7.82754 10.6496 7.75166 10.3245 7.76073C9.99939 7.76979 9.68229 7.86348 9.40447 8.03254C9.12666 8.2016 8.89773 8.44019 8.7403 8.72476C8.58287 9.00933 8.50238 9.33003 8.50676 9.65522C8.51115 9.9804 8.60026 10.2988 8.76531 10.579C8.93036 10.8593 9.16563 11.0916 9.4479 11.2531C9.73018 11.4146 10.0497 11.4997 10.3749 11.5H14.1249ZM14.1249 8.5C14.2732 8.5 14.4182 8.54399 14.5416 8.6264C14.6649 8.70881 14.761 8.82594 14.8178 8.96299C14.8746 9.10003 14.8894 9.25083 14.8605 9.39632C14.8316 9.5418 14.7601 9.67544 14.6552 9.78033C14.5503 9.88522 14.4167 9.95665 14.2712 9.98559C14.1257 10.0145 13.9749 9.99968 13.8379 9.94291C13.7008 9.88614 13.5837 9.79001 13.5013 9.66668C13.4189 9.54334 13.3749 9.39834 13.3749 9.25C13.3749 9.05109 13.4539 8.86032 13.5946 8.71967C13.7352 8.57902 13.926 8.5 14.1249 8.5ZM9.6249 9.625C9.6249 9.47666 9.66889 9.33166 9.7513 9.20832C9.83371 9.08499 9.95085 8.98886 10.0879 8.93209C10.2249 8.87533 10.3757 8.86047 10.5212 8.88941C10.6667 8.91835 10.8003 8.98978 10.9052 9.09467C11.0101 9.19956 11.0816 9.3332 11.1105 9.47868C11.1394 9.62417 11.1246 9.77497 11.0678 9.91201C11.011 10.0491 10.9149 10.1662 10.7916 10.2486C10.6682 10.331 10.5232 10.375 10.3749 10.375C10.176 10.375 9.98522 10.296 9.84457 10.1553C9.70392 10.0147 9.6249 9.82391 9.6249 9.625ZM17.4999 13V16.5H16.4999L14.9999 15.5V16.5C14.9999 16.6326 14.9472 16.7598 14.8535 16.8536C14.7597 16.9473 14.6325 17 14.4999 17H9.9999C9.86729 17 9.74012 16.9473 9.64635 16.8536C9.55258 16.7598 9.4999 16.6326 9.4999 16.5V13C9.4999 12.8674 9.55258 12.7402 9.64635 12.6464C9.74012 12.5527 9.86729 12.5 9.9999 12.5H14.4999C14.6325 12.5 14.7597 12.5527 14.8535 12.6464C14.9472 12.7402 14.9999 12.8674 14.9999 13V14L16.4999 13H17.4999Z" fill="white"/>
</g>
</g>
</g>
</g>
</svg>
