<svg width="26" height="26" viewBox="0 0 26 26" fill="none" xmlns="http://www.w3.org/2000/svg">
<g id="default / education">
<g id="POI-base">
<g id="Category_Master">
<g id="Baseshape_Pin">
<path id="shape" d="M9.12903 20.4794L9.12726 20.4777C6.78964 18.19 5.64527 16.3664 5.07698 14.8457C4.50986 13.3281 4.5 12.0735 4.5 10.8565C4.5 6.24879 8.30485 2.5 12.9913 2.5C17.6791 2.5 21.5 6.25003 21.5 10.8565C21.5 12.0735 21.4901 13.3281 20.923 14.8457C20.3547 16.3664 19.2104 18.19 16.8728 20.4777L16.8717 20.4787L12.992 24.2977L9.12903 20.4794Z" fill="#C19D95" stroke="#87737B"/>
</g>
</g>
<g id="Icon_Master">
<g id="education">
<path id="Vector" d="M13 13.11C14.0241 13.1575 15.0466 12.987 16 12.61V12.755C16 15.1 14.66 17 13 17C11.34 17 10 15.1 10 12.755V12.61C10.9532 12.9875 11.9759 13.1579 13 13.11ZM18 9.855L13 7L8 9.855L10 11.25V11.75C10.959 12.1063 11.9773 12.276 13 12.25C14.0227 12.276 15.041 12.1063 16 11.75V11.285L16.75 10.75V14.56H17.75V10.06L18 9.855Z" fill="white"/>
</g>
</g>
</g>
</g>
</svg>
