<svg width="26" height="26" viewBox="0 0 26 26" fill="none" xmlns="http://www.w3.org/2000/svg">
<g id="default / exhibition-center">
<g id="POI-base">
<g id="Category_Master">
<g id="Baseshape_Pin">
<path id="shape" d="M9.12903 20.4794L9.12726 20.4777C6.78964 18.19 5.64527 16.3664 5.07698 14.8457C4.50986 13.3281 4.5 12.0735 4.5 10.8565C4.5 6.24879 8.30485 2.5 12.9913 2.5C17.6791 2.5 21.5 6.25003 21.5 10.8565C21.5 12.0735 21.4901 13.3281 20.923 14.8457C20.3547 16.3664 19.2104 18.19 16.8728 20.4777L16.8717 20.4787L12.992 24.2977L9.12903 20.4794Z" fill="#C19D95" stroke="#87737B"/>
</g>
</g>
<g id="Icon_Master">
<g id="exhibition-center">
<path id="Vector" d="M8 11V16.5H11.5V15H14.5V16.5H18V11H8ZM10.25 14H9V12H10.25V14ZM12.5 14H11.25V12H12.5V14ZM14.75 14H13.5V12H14.75V14ZM17 14H15.75V12H17V14ZM8.105 9.99997C8.56655 9.09906 9.26777 8.343 10.1314 7.81505C10.9951 7.28711 11.9877 7.00775 13 7.00775C14.0123 7.00775 15.0049 7.28711 15.8686 7.81505C16.7322 8.343 17.4335 9.09906 17.895 9.99997H16.74C16.3295 9.38114 15.7723 8.87352 15.118 8.52236C14.4636 8.17121 13.7326 7.98744 12.99 7.98744C12.2474 7.98744 11.5164 8.17121 10.862 8.52236C10.2077 8.87352 9.65048 9.38114 9.24 9.99997H8.105Z" fill="white"/>
</g>
</g>
</g>
</g>
</svg>
