<svg width="26" height="26" viewBox="0 0 26 26" fill="none" xmlns="http://www.w3.org/2000/svg">
<g id="default / fast-food">
<g id="POI-base">
<g id="Category_Master">
<g id="Baseshape_Pin">
<path id="shape" d="M9.12903 20.4794L9.12726 20.4777C6.78964 18.19 5.64527 16.3664 5.07698 14.8457C4.50986 13.3281 4.5 12.0735 4.5 10.8565C4.5 6.24879 8.30485 2.5 12.9913 2.5C17.6791 2.5 21.5 6.25003 21.5 10.8565C21.5 12.0735 21.4901 13.3281 20.923 14.8457C20.3547 16.3664 19.2104 18.19 16.8728 20.4777L16.8717 20.4787L12.992 24.2977L9.12903 20.4794Z" fill="#FFA857" stroke="#B37B50"/>
</g>
</g>
<g id="Icon_Master">
<g id="fast-food">
<path id="Vector" d="M18 9L17.5 17H15.075C15.1891 16.7664 15.2489 16.51 15.25 16.25V14.87C15.4132 14.6092 15.4998 14.3077 15.4998 14C15.4998 13.6923 15.4132 13.3908 15.25 13.13V12C15.25 11.337 14.9866 10.7011 14.5178 10.2322C14.0489 9.76339 13.413 9.5 12.75 9.5H12.545L12.5 9H14.75V8C14.7494 7.91312 14.779 7.82873 14.8337 7.76125C14.8884 7.69377 14.9649 7.64737 15.05 7.63L17.05 7L17.25 7.75L15.75 8.25V9H18ZM8.25 16.235C8.248 16.3347 8.26593 16.4339 8.30273 16.5266C8.33952 16.6194 8.39445 16.7038 8.4643 16.7751C8.53414 16.8463 8.61749 16.9029 8.70948 16.9415C8.80147 16.9801 8.90023 17 9 17H13.5C13.6989 17 13.8897 16.921 14.0303 16.7803C14.171 16.6397 14.25 16.4489 14.25 16.25V15.5H8.25V16.235ZM14.25 12.235C14.25 11.405 13.58 10.485 12.75 10.485H9.75C8.92 10.485 8.25 11.405 8.25 12.235V12.5H14.25V12.235ZM14.125 13.5H8.375C8.17 13.5 8 13.725 8 14C8 14.275 8.17 14.5 8.375 14.5H14.125C14.33 14.5 14.5 14.275 14.5 14C14.5 13.725 14.33 13.5 14.125 13.5Z" fill="white"/>
</g>
</g>
</g>
</g>
</svg>
