<svg width="26" height="26" viewBox="0 0 26 26" fill="none" xmlns="http://www.w3.org/2000/svg">
<g id="default / ferry">
<g id="POI-base">
<g id="Category_Master">
<g id="Baseshape_Dot">
<path id="Outline Outside" d="M4.5 12C4.5 7.30558 8.30558 3.5 13 3.5C17.6944 3.5 21.5 7.30558 21.5 12C21.5 16.6944 17.6944 20.5 13 20.5C8.30558 20.5 4.5 16.6944 4.5 12Z" fill="#6BC9FF" stroke="#4A91C5"/>
</g>
</g>
<g id="Icon_Master">
<g id="ferry">
<path id="Vector" d="M16.755 12.195L16.5 9.195C16.478 9.00448 16.3871 8.8286 16.2443 8.70056C16.1015 8.57252 15.9168 8.50118 15.725 8.5H13.5V7H12.5V8.5H10.275C10.0848 8.50087 9.90131 8.57081 9.75876 8.69681C9.61621 8.82281 9.52426 8.99629 9.50003 9.185L9.24503 12.185L13 11L16.755 12.195ZM13 12.34L8.03003 13.92L9.30503 16.92C9.49435 16.5934 9.76783 16.3236 10.0969 16.1387C10.4261 15.9538 10.7987 15.8605 11.1762 15.8687C11.5536 15.8769 11.9219 15.9862 12.2427 16.1851C12.5635 16.3841 12.825 16.6655 13 17C13.1732 16.6645 13.4332 16.3815 13.753 16.1807C14.0727 15.9799 14.4405 15.8686 14.818 15.8584C15.1954 15.8482 15.5687 15.9395 15.8989 16.1227C16.229 16.3059 16.504 16.5743 16.695 16.9L17.97 13.9L13 12.34Z" fill="white"/>
</g>
</g>
</g>
</g>
</svg>
