<svg width="26" height="26" viewBox="0 0 26 26" fill="none" xmlns="http://www.w3.org/2000/svg">
<g id="default / fitness">
<g id="POI-base">
<g id="Category_Master">
<g id="Baseshape_Pin">
<path id="shape" d="M9.12903 20.4794L9.12726 20.4777C6.78964 18.19 5.64527 16.3664 5.07698 14.8457C4.50986 13.3281 4.5 12.0735 4.5 10.8565C4.5 6.24879 8.30485 2.5 12.9913 2.5C17.6791 2.5 21.5 6.25003 21.5 10.8565C21.5 12.0735 21.4901 13.3281 20.923 14.8457C20.3547 16.3664 19.2104 18.19 16.8728 20.4777L16.8717 20.4787L12.992 24.2977L9.12903 20.4794Z" fill="#C19D95" stroke="#87737B"/>
</g>
</g>
<g id="Icon_Master">
<g id="fitness">
<path id="Vector" d="M17.8599 11.5001L17.1549 10.8001L18.0399 9.91505L16.9999 8.85505L17.4999 8.32505L16.7999 7.61505L16.2699 8.15005L15.2099 7.08505L14.3249 7.97005L13.6199 7.26505C13.5734 7.21819 13.5181 7.18099 13.4572 7.15561C13.3963 7.13022 13.3309 7.11715 13.2649 7.11715C13.1989 7.11715 13.1335 7.13022 13.0726 7.15561C13.0117 7.18099 12.9564 7.21819 12.9099 7.26505L12.0299 8.15005C11.9368 8.24373 11.8845 8.37046 11.8845 8.50255C11.8845 8.63465 11.9368 8.76137 12.0299 8.85505L13.7949 10.6201L11.4999 12.9201L9.72989 11.1551C9.68341 11.1082 9.62811 11.071 9.56718 11.0456C9.50625 11.0202 9.4409 11.0072 9.37489 11.0072C9.30889 11.0072 9.24353 11.0202 9.1826 11.0456C9.12167 11.071 9.06637 11.1082 9.01989 11.1551L8.31489 11.8601C8.22177 11.9537 8.1695 12.0805 8.1695 12.2126C8.1695 12.3446 8.22177 12.4714 8.31489 12.5651L8.99989 13.2751L8.13989 14.1601L9.19989 15.2201L8.49989 15.9251L9.19989 16.6351L9.90489 15.9251L10.9649 17.0001L11.8499 16.1051L12.5599 16.8101C12.6536 16.9032 12.7803 16.9554 12.9124 16.9554C13.0445 16.9554 13.1712 16.9032 13.2649 16.8101L13.9699 16.1051C14.0168 16.0586 14.054 16.0033 14.0793 15.9423C14.1047 15.8814 14.1178 15.8161 14.1178 15.7501C14.1178 15.684 14.1047 15.6187 14.0793 15.5578C14.054 15.4968 14.0168 15.4415 13.9699 15.3951L12.2049 13.6301L14.5049 11.3301L16.2699 13.0951C16.3636 13.1882 16.4903 13.2404 16.6224 13.2404C16.7545 13.2404 16.8812 13.1882 16.9749 13.0951L17.8599 12.2151C17.9075 12.1685 17.9454 12.1129 17.9712 12.0515C17.997 11.9901 18.0103 11.9242 18.0103 11.8576C18.0103 11.7909 17.997 11.725 17.9712 11.6636C17.9454 11.6022 17.9075 11.5466 17.8599 11.5001Z" fill="white"/>
</g>
</g>
</g>
</g>
</svg>
