<svg width="26" height="26" viewBox="0 0 26 26" fill="none" xmlns="http://www.w3.org/2000/svg">
<g id="default / harbor">
<g id="POI-base">
<g id="Category_Master">
<g id="Baseshape_Pin">
<path id="shape" d="M9.12903 20.4794L9.12726 20.4777C6.78964 18.19 5.64527 16.3664 5.07698 14.8457C4.50986 13.3281 4.5 12.0735 4.5 10.8565C4.5 6.24879 8.30485 2.5 12.9913 2.5C17.6791 2.5 21.5 6.25003 21.5 10.8565C21.5 12.0735 21.4901 13.3281 20.923 14.8457C20.3547 16.3664 19.2104 18.19 16.8728 20.4777L16.8717 20.4787L12.992 24.2977L9.12903 20.4794Z" fill="#24ADB2" stroke="#197F8F"/>
</g>
</g>
<g id="Icon_Master">
<g id="harbor">
<path id="Vector" d="M18 12.75L16.75 10.75L15.5 12.75H16.25C16.25 14.355 15.21 15.09 13.705 15.25L13.58 12H15V11H13.545L13.5 10.16C13.8659 10.0377 14.1763 9.78931 14.3758 9.45915C14.5753 9.12899 14.6509 8.73863 14.5889 8.35788C14.527 7.97712 14.3316 7.63082 14.0378 7.38091C13.7439 7.13099 13.3708 6.99376 12.985 6.99376C12.5992 6.99376 12.2261 7.13099 11.9322 7.38091C11.6384 7.63082 11.443 7.97712 11.3811 8.35788C11.3191 8.73863 11.3947 9.12899 11.5942 9.45915C11.7937 9.78931 12.1041 10.0377 12.47 10.16L12.455 11H11V12H12.42L12.295 15.25C10.795 15.09 9.75 14.355 9.75 12.75H10.5L9.25 10.75L8 12.75H8.75V13C8.75 14.71 9.795 15.435 11.295 16.08C11.815 16.305 13 17 13 17C13 17 14.185 16.305 14.705 16.08C16.205 15.435 17.25 14.71 17.25 13V12.75H18ZM12.125 8.62499C12.125 8.45193 12.1763 8.28276 12.2725 8.13887C12.3686 7.99498 12.5053 7.88282 12.6652 7.8166C12.825 7.75037 13.001 7.73304 13.1707 7.76681C13.3404 7.80057 13.4963 7.8839 13.6187 8.00627C13.7411 8.12864 13.8244 8.28455 13.8582 8.45429C13.8919 8.62402 13.8746 8.79995 13.8084 8.95984C13.7422 9.11973 13.63 9.25638 13.4861 9.35253C13.3422 9.44867 13.1731 9.49999 13 9.49999C12.7683 9.49868 12.5465 9.40607 12.3827 9.24226C12.2189 9.07845 12.1263 8.85665 12.125 8.62499Z" fill="white"/>
</g>
</g>
</g>
</g>
</svg>
