<svg width="26" height="26" viewBox="0 0 26 26" fill="none" xmlns="http://www.w3.org/2000/svg">
<g id="default / karaoke">
<g id="POI-base">
<g id="Category_Master">
<g id="Baseshape_Pin">
<path id="shape" d="M9.12903 20.4794L9.12726 20.4777C6.78964 18.19 5.64527 16.3664 5.07698 14.8457C4.50986 13.3281 4.5 12.0735 4.5 10.8565C4.5 6.24879 8.30485 2.5 12.9913 2.5C17.6791 2.5 21.5 6.25003 21.5 10.8565C21.5 12.0735 21.4901 13.3281 20.923 14.8457C20.3547 16.3664 19.2104 18.19 16.8728 20.4777L16.8717 20.4787L12.992 24.2977L9.12903 20.4794Z" fill="#ED97C2" stroke="#A66F9A"/>
</g>
</g>
<g id="Icon_Master">
<g id="karaoke">
<path id="Vector" d="M14.37 12.66L10.705 15.815C10.5545 15.9455 10.3684 16.0281 10.1707 16.0522C9.97288 16.0762 9.77244 16.0406 9.59502 15.95L8.67502 16.87L8.14502 16.34L9.06502 15.415C8.97548 15.2382 8.94051 15.0387 8.96454 14.842C8.98858 14.6452 9.07054 14.4601 9.20002 14.31L12.355 10.645L14.37 12.66ZM15.385 7.00002C14.6888 7.00002 14.0211 7.27658 13.5289 7.76886C13.0366 8.26114 12.76 8.92882 12.76 9.62502L15.37 12.235C16.0662 12.235 16.7339 11.9585 17.2262 11.4662C17.7185 10.9739 17.995 10.3062 17.995 9.61002C17.995 8.91382 17.7185 8.24614 17.2262 7.75386C16.7339 7.26158 16.0662 6.98502 15.37 6.98502L15.385 7.00002Z" fill="white"/>
</g>
</g>
</g>
</g>
</svg>
