<svg width="26" height="26" viewBox="0 0 26 26" fill="none" xmlns="http://www.w3.org/2000/svg">
<g id="default / laundry">
<g id="POI-base">
<g id="Category_Master">
<g id="Baseshape_Pin">
<path id="shape" d="M9.12903 20.4794L9.12726 20.4777C6.78964 18.19 5.64527 16.3664 5.07698 14.8457C4.50986 13.3281 4.5 12.0735 4.5 10.8565C4.5 6.24879 8.30485 2.5 12.9913 2.5C17.6791 2.5 21.5 6.25003 21.5 10.8565C21.5 12.0735 21.4901 13.3281 20.923 14.8457C20.3547 16.3664 19.2104 18.19 16.8728 20.4777L16.8717 20.4787L12.992 24.2977L9.12903 20.4794Z" fill="#A0B1DA" stroke="#7182AB"/>
</g>
</g>
<g id="Icon_Master">
<g id="laundry">
<path id="Vector" d="M16.5 7H9.5C9.36739 7 9.24021 7.05268 9.14645 7.14645C9.05268 7.24021 9 7.36739 9 7.5V17H17V7.5C17 7.36739 16.9473 7.24021 16.8536 7.14645C16.7598 7.05268 16.6326 7 16.5 7ZM16 13C16 13.5933 15.8241 14.1734 15.4944 14.6667C15.1648 15.1601 14.6962 15.5446 14.1481 15.7716C13.5999 15.9987 12.9967 16.0581 12.4147 15.9424C11.8328 15.8266 11.2982 15.5409 10.8787 15.1213C10.4591 14.7018 10.1734 14.1672 10.0576 13.5853C9.94189 13.0033 10.0013 12.4001 10.2284 11.8519C10.4554 11.3038 10.8399 10.8352 11.3333 10.5056C11.8266 10.1759 12.4067 10 13 10H13.05C13.837 10.0131 14.5872 10.335 15.1391 10.8962C15.6909 11.4574 16.0001 12.2129 16 13ZM14 8H16V9H14V8ZM14.5 13C14.4997 13.2965 14.4116 13.5862 14.2468 13.8327C14.0819 14.0791 13.8478 14.2712 13.5738 14.3846C13.2999 14.498 12.9985 14.5277 12.7077 14.4699C12.4169 14.4122 12.1498 14.2695 11.94 14.06C11.6586 13.779 11.5003 13.3977 11.5 13H14.5Z" fill="white"/>
</g>
</g>
</g>
</g>
</svg>
