<svg width="26" height="26" viewBox="0 0 26 26" fill="none" xmlns="http://www.w3.org/2000/svg">
<g id="default / library">
<g id="POI-base">
<g id="Category_Master">
<g id="Baseshape_Pin">
<path id="shape" d="M9.12903 20.4794L9.12726 20.4777C6.78964 18.19 5.64527 16.3664 5.07698 14.8457C4.50986 13.3281 4.5 12.0735 4.5 10.8565C4.5 6.24879 8.30485 2.5 12.9913 2.5C17.6791 2.5 21.5 6.25003 21.5 10.8565C21.5 12.0735 21.4901 13.3281 20.923 14.8457C20.3547 16.3664 19.2104 18.19 16.8728 20.4777L16.8717 20.4787L12.992 24.2977L9.12903 20.4794Z" fill="#C19D95" stroke="#87737B"/>
</g>
</g>
<g id="Icon_Master">
<g id="library">
<path id="Vector" d="M18 8H16.19C15.4766 8 14.7924 8.28341 14.2879 8.78788C13.7834 9.29236 13.5 9.97657 13.5 10.69V16.5H14C14 16.2348 14.1054 15.9804 14.2929 15.7929C14.4804 15.6054 14.7348 15.5 15 15.5H18V8ZM8 8H9.825C10.1774 8.00065 10.5261 8.07079 10.8514 8.20639C11.1766 8.34199 11.4719 8.5404 11.7204 8.79025C11.9688 9.04011 12.1656 9.33651 12.2994 9.66249C12.4331 9.98847 12.5013 10.3376 12.5 10.69V16.5H12C12 16.2348 11.8946 15.9804 11.7071 15.7929C11.5196 15.6054 11.2652 15.5 11 15.5H8V8Z" fill="white"/>
</g>
</g>
</g>
</g>
</svg>
