<svg width="26" height="26" viewBox="0 0 26 26" fill="none" xmlns="http://www.w3.org/2000/svg">
<g id="default / monorail">
<g id="POI-base">
<g id="Category_Master">
<g id="Baseshape_Dot">
<path id="Outline Outside" d="M4.5 12C4.5 7.30558 8.30558 3.5 13 3.5C17.6944 3.5 21.5 7.30558 21.5 12C21.5 16.6944 17.6944 20.5 13 20.5C8.30558 20.5 4.5 16.6944 4.5 12Z" fill="#6BC9FF" stroke="#4A91C5"/>
</g>
</g>
<g id="Icon_Master">
<g id="monorail">
<path id="Vector" d="M16.9499 12.155L16.4999 8.41C16.477 8.02798 16.3088 7.66918 16.03 7.40706C15.7511 7.14494 15.3826 6.99931 14.9999 7H10.9999C10.6172 6.99931 10.2487 7.14494 9.96985 7.40706C9.69099 7.66918 9.52288 8.02798 9.49991 8.41L9.04991 12.155C9.00872 12.5469 9.06187 12.9429 9.20491 13.31L9.96991 15.05C10.0477 15.2531 10.1845 15.4284 10.3627 15.5531C10.5409 15.6779 10.7524 15.7464 10.9699 15.75L11.2799 14.25C11.3362 14.0317 11.4647 13.8388 11.6444 13.7027C11.8241 13.5665 12.0445 13.4951 12.2699 13.5H13.7299C13.9541 13.4991 14.1721 13.5735 14.3489 13.7113C14.5257 13.8491 14.6511 14.0424 14.7049 14.26L14.9849 15.76C15.2024 15.7564 15.4139 15.6879 15.5921 15.5631C15.7703 15.4384 15.9071 15.2631 15.9849 15.06L16.7749 13.32C16.9264 12.9515 16.9864 12.5518 16.9499 12.155ZM10.9499 8H15.0599C15.2089 8.00331 15.3514 8.06198 15.4595 8.16458C15.5677 8.26717 15.6338 8.40635 15.6449 8.555C15.6449 8.555 15.6949 9.66 15.7249 10.5H10.2599C10.2949 9.66 10.3599 8.555 10.3599 8.555C10.3711 8.40551 10.4379 8.26563 10.5471 8.16292C10.6563 8.0602 10.8 8.00208 10.9499 8ZM11.4999 12.75H10.4999C10.4426 12.7501 10.3859 12.7385 10.3332 12.7158C10.2805 12.6932 10.2331 12.66 10.1937 12.6183C10.1544 12.5766 10.124 12.5273 10.1044 12.4734C10.0848 12.4195 10.0765 12.3622 10.0799 12.305L10.1049 11.895C10.1114 11.7863 10.1598 11.6843 10.24 11.6106C10.3203 11.5369 10.426 11.4972 10.5349 11.5H11.4999V12.75ZM15.4999 12.75H14.4999V11.5H15.4649C15.5721 11.4998 15.6753 11.5406 15.7534 11.6141C15.8315 11.6875 15.8785 11.788 15.8849 11.895L15.9099 12.305C15.9133 12.3614 15.9053 12.4179 15.8863 12.4711C15.8673 12.5243 15.8378 12.5731 15.7995 12.6147C15.7613 12.6562 15.715 12.6896 15.6635 12.7129C15.612 12.7361 15.5564 12.7488 15.4999 12.75ZM13.8549 14.88L14.2349 17H11.7349L12.1249 14.885C12.1523 14.7741 12.2168 14.6758 12.3078 14.6067C12.3988 14.5376 12.5107 14.5017 12.6249 14.505H13.3399C13.4543 14.5002 13.5669 14.5349 13.6588 14.6031C13.7507 14.6714 13.8164 14.7691 13.8449 14.88H13.8549Z" fill="white"/>
</g>
</g>
</g>
</g>
</svg>
