<svg width="26" height="26" viewBox="0 0 26 26" fill="none" xmlns="http://www.w3.org/2000/svg">
<g id="default / nature-overlook">
<g id="POI-base">
<g id="Category_Master">
<g id="Baseshape_Pin">
<path id="shape" d="M9.12903 20.4794L9.12726 20.4777C6.78964 18.19 5.64527 16.3664 5.07698 14.8457C4.50986 13.3281 4.5 12.0735 4.5 10.8565C4.5 6.24879 8.30485 2.5 12.9913 2.5C17.6791 2.5 21.5 6.25003 21.5 10.8565C21.5 12.0735 21.4901 13.3281 20.923 14.8457C20.3547 16.3664 19.2104 18.19 16.8728 20.4777L16.8717 20.4787L12.992 24.2977L9.12903 20.4794Z" fill="#45BF94" stroke="#308C7A"/>
</g>
</g>
<g id="Icon_Master">
<g id="nature-overlook">
<path id="Vector" d="M12 8H10V7H12V8ZM8.00001 17H11V16H8.00001V17ZM15 17H18V16H15V17ZM16 7H14V8H16V7ZM18 12.255V15.5H15V13H11V15.5H8.00001V12.255C7.99873 11.9232 8.08128 11.5964 8.24001 11.305L9.75001 8.5H12V9H14V8.5H16.24L17.74 11.305C17.9057 11.5945 17.9952 11.9214 18 12.255ZM13.5 10H12.5V12H13.5V10Z" fill="white"/>
</g>
</g>
</g>
</g>
</svg>
