<svg width="26" height="26" viewBox="0 0 26 26" fill="none" xmlns="http://www.w3.org/2000/svg">
<g id="default / park-and-ride">
<g id="POI-base">
<g id="Category_Master">
<g id="Baseshape_Pin">
<path id="shape" d="M9.12903 20.4794L9.12726 20.4777C6.78964 18.19 5.64527 16.3664 5.07698 14.8457C4.50986 13.3281 4.5 12.0735 4.5 10.8565C4.5 6.24879 8.30485 2.5 12.9913 2.5C17.6791 2.5 21.5 6.25003 21.5 10.8565C21.5 12.0735 21.4901 13.3281 20.923 14.8457C20.3547 16.3664 19.2104 18.19 16.8728 20.4777L16.8717 20.4787L12.992 24.2977L9.12903 20.4794Z" fill="#4E91E9" stroke="#386CB6"/>
</g>
</g>
<g id="Icon_Master">
<g id="park-and-ride">
<path id="Vector" d="M18 8.5H8V8C8 7.73478 8.10536 7.48043 8.29289 7.29289C8.48043 7.10536 8.73478 7 9 7H17C17.2652 7 17.5196 7.10536 17.7071 7.29289C17.8946 7.48043 18 7.73478 18 8V8.5ZM8 16C8 16.2652 8.10536 16.5196 8.29289 16.7071C8.48043 16.8946 8.73478 17 9 17H17C17.2652 17 17.5196 16.8946 17.7071 16.7071C17.8946 16.5196 18 16.2652 18 16V15.5H8V16ZM9.18 14.5H8V9.5H9.615C10.905 9.5 11.7 10.035 11.7 11.13C11.7 12.225 10.875 12.835 9.7 12.835H9.18V14.5ZM9.18 12H9.62C10.155 12 10.5 11.76 10.5 11.13C10.5 10.595 10.185 10.345 9.6 10.345H9.18V12ZM12 11.745C11.999 11.8938 12.0423 12.0394 12.1243 12.1635C12.2063 12.2876 12.3234 12.3846 12.4607 12.4419C12.5979 12.4993 12.7491 12.5146 12.8951 12.4858C13.041 12.457 13.1751 12.3855 13.2803 12.2803C13.3855 12.1751 13.457 12.041 13.4858 11.8951C13.5146 11.7491 13.4993 11.5979 13.4419 11.4607C13.3846 11.3234 13.2876 11.2063 13.1635 11.1243C13.0394 11.0423 12.8938 10.999 12.745 11C12.6464 10.9972 12.5483 11.0146 12.4567 11.0511C12.365 11.0876 12.2818 11.1423 12.2121 11.2121C12.1423 11.2818 12.0876 11.365 12.0511 11.4567C12.0146 11.5483 11.9972 11.6464 12 11.745ZM16.735 12.37L18 14.5H16.67L15.645 12.59H15.18V14.5H14V9.5H15.635C16.99 9.5 17.69 10 17.69 11C17.7032 11.3015 17.6169 11.599 17.4443 11.8466C17.2717 12.0942 17.0225 12.2781 16.735 12.37ZM16.5 11C16.5 10.5 16.215 10.31 15.63 10.31H15.205V11.755H15.705C16.2 11.775 16.5 11.55 16.5 11Z" fill="white"/>
</g>
</g>
</g>
</g>
</svg>
