<svg width="26" height="26" viewBox="0 0 26 26" fill="none" xmlns="http://www.w3.org/2000/svg">
<g id="default / parking">
<g id="POI-base">
<g id="Category_Master">
<g id="Baseshape_Pin">
<path id="shape" d="M9.12903 20.4794L9.12726 20.4777C6.78964 18.19 5.64527 16.3664 5.07698 14.8457C4.50986 13.3281 4.5 12.0735 4.5 10.8565C4.5 6.24879 8.30485 2.5 12.9913 2.5C17.6791 2.5 21.5 6.25003 21.5 10.8565C21.5 12.0735 21.4901 13.3281 20.923 14.8457C20.3547 16.3664 19.2104 18.19 16.8728 20.4777L16.8717 20.4787L12.992 24.2977L9.12903 20.4794Z" fill="#4E91E9" stroke="#386CB6"/>
</g>
</g>
<g id="Icon_Master">
<g id="parking">
<path id="Vector" d="M12.95 8.5H10.5V16H12.5V13.77H13.15C14.975 13.77 16.25 12.885 16.25 11.075C16.25 9.35 15 8.5 12.95 8.5ZM13.28 12.335H12.5V9.94H13.23C14.08 9.94 14.48 10.34 14.48 11.1C14.5 12 14.045 12.335 13.28 12.335Z" fill="white"/>
</g>
</g>
</g>
</g>
</svg>
