<svg width="26" height="26" viewBox="0 0 26 26" fill="none" xmlns="http://www.w3.org/2000/svg">
<g id="default / petrol-station">
<g id="POI-base">
<g id="Category_Master">
<g id="Baseshape_Pin">
<path id="shape" d="M9.12903 20.4794L9.12726 20.4777C6.78964 18.19 5.64527 16.3664 5.07698 14.8457C4.50986 13.3281 4.5 12.0735 4.5 10.8565C4.5 6.24879 8.30485 2.5 12.9913 2.5C17.6791 2.5 21.5 6.25003 21.5 10.8565C21.5 12.0735 21.4901 13.3281 20.923 14.8457C20.3547 16.3664 19.2104 18.19 16.8728 20.4777L16.8717 20.4787L12.992 24.2977L9.12903 20.4794Z" fill="#6BC9FF" stroke="#4A91C5"/>
</g>
</g>
<g id="Icon_Master">
<g id="petrol-station">
<path id="Vector" d="M18 10L16 8L15.5 8.545L16.5 9.545V12L17 12.5V15C17 15.2652 16.8946 15.5196 16.7071 15.7071C16.5196 15.8946 16.2652 16 16 16H14V8C14.0109 7.74699 13.9214 7.49993 13.7509 7.31262C13.5805 7.12532 13.3429 7.01296 13.09 7H9.91C9.65709 7.01296 9.41954 7.12532 9.24909 7.31262C9.07865 7.49993 8.98912 7.74699 9 8V16H8V17H16C16.5304 17 17.0391 16.7893 17.4142 16.4142C17.7893 16.0391 18 15.5304 18 15V10ZM10 8H13V11.5H10V8Z" fill="white"/>
</g>
</g>
</g>
</g>
</svg>
