<svg width="26" height="26" viewBox="0 0 26 26" fill="none" xmlns="http://www.w3.org/2000/svg">
<g id="default / pharmacy">
<g id="POI-base">
<g id="Category_Master">
<g id="Baseshape_Pin">
<path id="shape" d="M9.12903 20.4794L9.12726 20.4777C6.78964 18.19 5.64527 16.3664 5.07698 14.8457C4.50986 13.3281 4.5 12.0735 4.5 10.8565C4.5 6.24879 8.30485 2.5 12.9913 2.5C17.6791 2.5 21.5 6.25003 21.5 10.8565C21.5 12.0735 21.4901 13.3281 20.923 14.8457C20.3547 16.3664 19.2104 18.19 16.8728 20.4777L16.8717 20.4787L12.992 24.2977L9.12903 20.4794Z" fill="#FC5A72" stroke="#B04462"/>
</g>
</g>
<g id="Icon_Master">
<g id="pharmacy">
<path id="Vector" d="M15.5 8.49998H10.5V7.85498C10.4993 7.74252 10.521 7.63104 10.5637 7.52701C10.6065 7.42297 10.6694 7.32846 10.7489 7.24893C10.8285 7.1694 10.923 7.10645 11.027 7.06372C11.1311 7.02098 11.2425 6.99932 11.355 6.99998H14.645C14.7575 6.99932 14.8689 7.02098 14.973 7.06372C15.077 7.10645 15.1715 7.1694 15.2511 7.24893C15.3306 7.32846 15.3935 7.42297 15.4363 7.52701C15.479 7.63104 15.5007 7.74252 15.5 7.85498V8.49998ZM17 10.5V17H9V10.5C9 10.2348 9.10536 9.98041 9.29289 9.79288C9.48043 9.60534 9.73478 9.49998 10 9.49998H16C16.2652 9.49998 16.5196 9.60534 16.7071 9.79288C16.8946 9.98041 17 10.2348 17 10.5ZM15.75 12.5H13.75V10.5H12.25V12.5H10.25V14H12.25V16H13.75V14H15.75V12.5Z" fill="white"/>
</g>
</g>
</g>
</g>
</svg>
