<svg width="26" height="26" viewBox="0 0 26 26" fill="none" xmlns="http://www.w3.org/2000/svg">
<g id="default / police">
<g id="POI-base">
<g id="Category_Master">
<g id="Baseshape_Pin">
<path id="shape" d="M9.12903 20.4794L9.12726 20.4777C6.78964 18.19 5.64527 16.3664 5.07698 14.8457C4.50986 13.3281 4.5 12.0735 4.5 10.8565C4.5 6.24879 8.30485 2.5 12.9913 2.5C17.6791 2.5 21.5 6.25003 21.5 10.8565C21.5 12.0735 21.4901 13.3281 20.923 14.8457C20.3547 16.3664 19.2104 18.19 16.8728 20.4777L16.8717 20.4787L12.992 24.2977L9.12903 20.4794Z" fill="#FC5A72" stroke="#B04462"/>
</g>
</g>
<g id="Icon_Master">
<g id="police">
<path id="Vector" d="M14.285 9.285C14.2662 9.6664 14.1338 10.0335 13.9049 10.3391C13.6759 10.6447 13.3608 10.8748 13 11C12.6392 10.8748 12.3241 10.6447 12.0951 10.3391C11.8662 10.0335 11.7338 9.6664 11.715 9.285V8.855L13 8.43L14.285 8.855V9.285ZM17.75 9.5L13 7L8.25 9.5L10 11V11.5C10 11.5 10.5 12 13 12C15.5 12 16 11.5 16 11.5V11L17.75 9.5ZM16 12.25C16 12.25 15.5 13.5 13 13.5C10.5 13.5 10 12.25 10 12.25V12.75C10 15.095 11.345 17 13 17C14.655 17 16 15.095 16 12.75V12.25Z" fill="white"/>
</g>
</g>
</g>
</g>
</svg>
