<svg width="26" height="26" viewBox="0 0 26 26" fill="none" xmlns="http://www.w3.org/2000/svg">
<g id="default / pool">
<g id="POI-base">
<g id="Category_Master">
<g id="Baseshape_Pin">
<path id="shape" d="M9.12903 20.4794L9.12726 20.4777C6.78964 18.19 5.64527 16.3664 5.07698 14.8457C4.50986 13.3281 4.5 12.0735 4.5 10.8565C4.5 6.24879 8.30485 2.5 12.9913 2.5C17.6791 2.5 21.5 6.25003 21.5 10.8565C21.5 12.0735 21.4901 13.3281 20.923 14.8457C20.3547 16.3664 19.2104 18.19 16.8728 20.4777L16.8717 20.4787L12.992 24.2977L9.12903 20.4794Z" fill="#ED97C2" stroke="#A66F9A"/>
</g>
</g>
<g id="Icon_Master">
<g id="pool">
<path id="Vector" d="M13 7C12.0111 7 11.0444 7.29324 10.2222 7.84265C9.39991 8.39206 8.75904 9.17295 8.3806 10.0866C8.00217 11.0002 7.90315 12.0055 8.09608 12.9755C8.289 13.9454 8.76521 14.8363 9.46447 15.5355C10.1637 16.2348 11.0546 16.711 12.0246 16.9039C12.9945 17.0969 13.9998 16.9978 14.9134 16.6194C15.8271 16.241 16.6079 15.6001 17.1573 14.7779C17.7068 13.9556 18 12.9889 18 12C18 11.3434 17.8707 10.6932 17.6194 10.0866C17.3681 9.47995 16.9998 8.92876 16.5355 8.46447C16.0712 8.00017 15.52 7.63188 14.9134 7.3806C14.3068 7.12933 13.6566 7 13 7ZM13 14.945C12.4175 14.945 11.8482 14.7723 11.3638 14.4487C10.8795 14.1251 10.5021 13.6651 10.2792 13.127C10.0563 12.5889 9.99796 11.9967 10.1116 11.4255C10.2252 10.8542 10.5057 10.3294 10.9176 9.91757C11.3294 9.5057 11.8542 9.22522 12.4255 9.11159C12.9967 8.99795 13.5889 9.05627 14.127 9.27917C14.6651 9.50207 15.1251 9.87954 15.4487 10.3638C15.7723 10.8481 15.945 11.4175 15.945 12C15.945 12.3867 15.8688 12.7697 15.7208 13.127C15.5728 13.4843 15.3559 13.809 15.0824 14.0824C14.809 14.3559 14.4843 14.5728 14.127 14.7208C13.7697 14.8688 13.3867 14.945 13 14.945ZM13.6 11.855C13.776 11.7905 13.9284 11.6744 14.0373 11.5219C14.1461 11.3693 14.2063 11.1874 14.21 11C14.21 10.385 13.655 10.055 13 10.055C12.345 10.055 11.79 10.425 11.79 11.03C11.7872 11.2141 11.8383 11.3949 11.9369 11.5503C12.0355 11.7058 12.1773 11.8291 12.345 11.905C12.1441 11.967 11.9679 12.0907 11.8413 12.2585C11.7148 12.4264 11.6443 12.6298 11.64 12.84C11.64 13.44 12.14 13.905 12.985 13.905C13.83 13.905 14.36 13.43 14.36 12.825C14.348 12.6049 14.2687 12.3938 14.1328 12.2203C13.9968 12.0468 13.8108 11.9193 13.6 11.855ZM13 10.57C13.0693 10.5599 13.1401 10.5657 13.2069 10.5868C13.2737 10.6079 13.3348 10.6439 13.3858 10.692C13.4368 10.74 13.4762 10.799 13.5012 10.8645C13.5261 10.9299 13.536 11.0002 13.53 11.07C13.5317 11.2019 13.4947 11.3313 13.4236 11.4424C13.3525 11.5535 13.2504 11.6413 13.13 11.695L13.03 11.66C12.67 11.525 12.47 11.39 12.47 11.075C12.4632 11.0048 12.4724 10.934 12.4971 10.8679C12.5217 10.8018 12.561 10.7421 12.6121 10.6935C12.6631 10.6448 12.7246 10.6084 12.7918 10.587C12.859 10.5656 12.9302 10.5598 13 10.57ZM13 13.405C12.605 13.405 12.35 13.19 12.35 12.835C12.3444 12.6831 12.3836 12.5329 12.4627 12.4031C12.5419 12.2733 12.6574 12.1696 12.795 12.105L12.965 12.165C13.465 12.345 13.645 12.5 13.645 12.845C13.6451 12.926 13.6278 13.0061 13.5942 13.0798C13.5606 13.1536 13.5116 13.2192 13.4504 13.2723C13.3892 13.3254 13.3174 13.3648 13.2396 13.3877C13.1619 13.4106 13.0802 13.4165 13 13.405Z" fill="white"/>
</g>
</g>
</g>
</g>
</svg>
