<svg width="26" height="26" viewBox="0 0 26 26" fill="none" xmlns="http://www.w3.org/2000/svg">
<g id="default / public-toilet">
<g id="POI-base">
<g id="Category_Master">
<g id="Baseshape_Pin">
<path id="shape" d="M9.12903 20.4794L9.12726 20.4777C6.78964 18.19 5.64527 16.3664 5.07698 14.8457C4.50986 13.3281 4.5 12.0735 4.5 10.8565C4.5 6.24879 8.30485 2.5 12.9913 2.5C17.6791 2.5 21.5 6.25003 21.5 10.8565C21.5 12.0735 21.4901 13.3281 20.923 14.8457C20.3547 16.3664 19.2104 18.19 16.8728 20.4777L16.8717 20.4787L12.992 24.2977L9.12903 20.4794Z" fill="#C19D95" stroke="#87737B"/>
</g>
</g>
<g id="Icon_Master">
<g id="public-toilet">
<path id="Vector" d="M17.5 13.5H17.1L17.255 17H16.255L16 13.5H15.5L15.25 17H14.25L14.395 13.5H14V10.25C14 9.75 14.28 9.5 14.66 9.5H16.845C17.22 9.5 17.5 9.75 17.5 10.25V13.5ZM12 10.25C12 10.0511 11.921 9.86032 11.7803 9.71967C11.6397 9.57902 11.4489 9.5 11.25 9.5C10.86 9.5 10.785 9.75 10.25 9.75C9.715 9.75 9.625 9.5 9.25 9.5C9.05109 9.5 8.86032 9.57902 8.71967 9.71967C8.57902 9.86032 8.5 10.0511 8.5 10.25V10.75L9.5 11.25L8 15.5H9.5L9.75 17H10.75L11 15.5H12.5L11 11.25L12 10.75V10.25ZM15.5 9H16C16.1326 9 16.2598 8.94732 16.3536 8.85355C16.4473 8.75979 16.5 8.63261 16.5 8.5V7.5C16.5 7.36739 16.4473 7.24021 16.3536 7.14645C16.2598 7.05268 16.1326 7 16 7H15.5C15.3674 7 15.2402 7.05268 15.1464 7.14645C15.0527 7.24021 15 7.36739 15 7.5V8.5C15 8.63261 15.0527 8.75979 15.1464 8.85355C15.2402 8.94732 15.3674 9 15.5 9ZM10 9H10.5C10.6326 9 10.7598 8.94732 10.8536 8.85355C10.9473 8.75979 11 8.63261 11 8.5V7.5C11 7.36739 10.9473 7.24021 10.8536 7.14645C10.7598 7.05268 10.6326 7 10.5 7H10C9.86739 7 9.74021 7.05268 9.64645 7.14645C9.55268 7.24021 9.5 7.36739 9.5 7.5V8.5C9.5 8.63261 9.55268 8.75979 9.64645 8.85355C9.74021 8.94732 9.86739 9 10 9Z" fill="white"/>
</g>
</g>
</g>
</g>
</svg>
