<svg width="26" height="26" viewBox="0 0 26 26" fill="none" xmlns="http://www.w3.org/2000/svg">
<g id="default / rail-light">
<g id="POI-base">
<g id="Category_Master">
<g id="Baseshape_Dot">
<path id="Outline Outside" d="M4.5 12C4.5 7.30558 8.30558 3.5 13 3.5C17.6944 3.5 21.5 7.30558 21.5 12C21.5 16.6944 17.6944 20.5 13 20.5C8.30558 20.5 4.5 16.6944 4.5 12Z" fill="#6BC9FF" stroke="#4A91C5"/>
</g>
</g>
<g id="Icon_Master">
<g id="rail-light">
<path id="Vector" d="M15 14.5H16.25V12.025C16.2486 11.6826 16.2302 11.3405 16.195 11L15.89 8.36498C15.8564 7.99271 15.6849 7.64642 15.4093 7.39393C15.1337 7.14144 14.7738 7.00095 14.4 6.99998H11.6C11.2276 6.99798 10.8678 7.13457 10.5906 7.38316C10.3133 7.63176 10.1385 7.97459 10.1 8.34498L9.805 11C9.76909 11.3472 9.75074 11.6959 9.75 12.045V14.5H11L8.5 17H10L12.25 14.5H13.75L16.5 17H18L15 14.5ZM11.13 8.67998C11.16 8.35998 11.43 7.99998 11.75 7.99998H14.25C14.57 7.99998 14.84 8.36498 14.87 8.68498L15.175 11.075C15.175 11.215 15.205 11.36 15.21 11.505H10.79C10.79 11.36 10.79 11.215 10.825 11.075L11.13 8.67998ZM13 13.75C12.8517 13.75 12.7067 13.706 12.5833 13.6236C12.46 13.5412 12.3639 13.424 12.3071 13.287C12.2503 13.1499 12.2355 12.9991 12.2644 12.8537C12.2933 12.7082 12.3648 12.5745 12.4697 12.4696C12.5746 12.3648 12.7082 12.2933 12.8537 12.2644C12.9992 12.2354 13.15 12.2503 13.287 12.3071C13.4241 12.3638 13.5412 12.46 13.6236 12.5833C13.706 12.7066 13.75 12.8516 13.75 13C13.75 13.1989 13.671 13.3897 13.5303 13.5303C13.3897 13.671 13.1989 13.75 13 13.75Z" fill="white"/>
</g>
</g>
</g>
</g>
</svg>
