<svg width="26" height="26" viewBox="0 0 26 26" fill="none" xmlns="http://www.w3.org/2000/svg">
<g id="default / ski-run">
<g id="POI-base">
<g id="Category_Master">
<g id="Baseshape_Pin">
<path id="shape" d="M9.12903 20.4794L9.12726 20.4777C6.78964 18.19 5.64527 16.3664 5.07698 14.8457C4.50986 13.3281 4.5 12.0735 4.5 10.8565C4.5 6.24879 8.30485 2.5 12.9913 2.5C17.6791 2.5 21.5 6.25003 21.5 10.8565C21.5 12.0735 21.4901 13.3281 20.923 14.8457C20.3547 16.3664 19.2104 18.19 16.8728 20.4777L16.8717 20.4787L12.992 24.2977L9.12903 20.4794Z" fill="#45BF94" stroke="#308C7A"/>
</g>
</g>
<g id="Icon_Master">
<g id="ski-run">
<path id="Vector" d="M17.1849 9.04498L17.6849 8.17498C17.7485 8.06064 17.7648 7.92591 17.7302 7.79972C17.6956 7.67352 17.6129 7.56591 17.4999 7.49998L17.0649 7.24998C16.9501 7.1848 16.8141 7.16766 16.6868 7.20232C16.5594 7.23698 16.4508 7.32062 16.3849 7.43498L15.6349 8.73498L16.0699 8.97998L16.4999 9.22998C16.5569 9.26304 16.62 9.28448 16.6854 9.29308C16.7508 9.30167 16.8172 9.29724 16.8809 9.28004C16.9446 9.26285 17.0042 9.23323 17.0564 9.19288C17.1085 9.15254 17.1522 9.10228 17.1849 9.04498ZM16.6849 15.96C16.2599 16.2 16.0699 16.185 15.7899 16.02L12.7499 14.285L14.4999 13.26L13.9999 11.555L11.8499 10.315L12.9649 12.39L11.6649 13.665L8.84488 12.05L8.25488 12.575L15.4099 16.665C15.6327 16.7942 15.8914 16.848 16.1473 16.8182C16.4032 16.7885 16.6426 16.6769 16.8299 16.5L16.6849 15.96ZM17.2449 11.96L15.9449 11.215L15.8999 9.75498L14.2149 8.78998C14.1389 8.7461 14.0527 8.72299 13.9649 8.72299C13.8771 8.72299 13.7909 8.7461 13.7149 8.78998L12.9049 9.49998L10.2999 7.99998L9.92988 8.64998L16.8749 12.62L17.2449 11.96Z" fill="white"/>
</g>
</g>
</g>
</g>
</svg>
