<svg width="26" height="26" viewBox="0 0 26 26" fill="none" xmlns="http://www.w3.org/2000/svg">
<g id="default / theater">
<g id="POI-base">
<g id="Category_Master">
<g id="Baseshape_Pin">
<path id="shape" d="M9.12903 20.4794L9.12726 20.4777C6.78964 18.19 5.64527 16.3664 5.07698 14.8457C4.50986 13.3281 4.5 12.0735 4.5 10.8565C4.5 6.24879 8.30485 2.5 12.9913 2.5C17.6791 2.5 21.5 6.25003 21.5 10.8565C21.5 12.0735 21.4901 13.3281 20.923 14.8457C20.3547 16.3664 19.2104 18.19 16.8728 20.4777L16.8717 20.4787L12.992 24.2977L9.12903 20.4794Z" fill="#ED97C2" stroke="#A66F9A"/>
</g>
</g>
<g id="Icon_Master">
<g id="theater">
<path id="Vector" d="M8.5 7V12.72C8.5 13.9135 8.97411 15.0581 9.81802 15.902C10.6619 16.7459 11.8065 17.22 13 17.22C14.1935 17.22 15.3381 16.7459 16.182 15.902C17.0259 15.0581 17.5 13.9135 17.5 12.72V7H8.5ZM10 10.375C10 10.0435 10.1317 9.72554 10.3661 9.49112C10.6005 9.2567 10.9185 9.125 11.25 9.125C11.5815 9.125 11.8995 9.2567 12.1339 9.49112C12.3683 9.72554 12.5 10.0435 12.5 10.375C12.5 11.065 11.94 11 11.25 11C10.56 11 10 11.065 10 10.375ZM15.34 13.875C15.161 14.351 14.8411 14.761 14.423 15.0505C14.0049 15.3399 13.5085 15.495 13 15.495C12.4915 15.495 11.9951 15.3399 11.577 15.0505C11.1589 14.761 10.839 14.351 10.66 13.875C10.629 13.7917 10.6208 13.7016 10.6362 13.6141C10.6515 13.5265 10.69 13.4446 10.7476 13.3769C10.8051 13.3091 10.8797 13.258 10.9636 13.2286C11.0475 13.1993 11.1378 13.1929 11.225 13.21C12.3999 13.41 13.6001 13.41 14.775 13.21C14.864 13.1913 14.9564 13.1972 15.0423 13.2272C15.1282 13.2571 15.2042 13.3098 15.2624 13.3798C15.3205 13.4497 15.3584 13.5342 15.3721 13.6241C15.3858 13.714 15.3747 13.8059 15.34 13.89V13.875ZM14.75 11C14.06 11 13.5 11.065 13.5 10.375C13.5 10.0435 13.6317 9.72554 13.8661 9.49112C14.1005 9.2567 14.4185 9.125 14.75 9.125C15.0815 9.125 15.3995 9.2567 15.6339 9.49112C15.8683 9.72554 16 10.0435 16 10.375C16 11.065 15.44 11 14.75 11Z" fill="white"/>
</g>
</g>
</g>
</g>
</svg>
