<svg width="26" height="26" viewBox="0 0 26 26" fill="none" xmlns="http://www.w3.org/2000/svg">
<g id="default / toll-booth">
<g id="POI-base">
<g id="Category_Master">
<g id="Baseshape_Pin">
<path id="shape" d="M9.12903 20.4794L9.12726 20.4777C6.78964 18.19 5.64527 16.3664 5.07698 14.8457C4.50986 13.3281 4.5 12.0735 4.5 10.8565C4.5 6.24879 8.30485 2.5 12.9913 2.5C17.6791 2.5 21.5 6.25003 21.5 10.8565C21.5 12.0735 21.4901 13.3281 20.923 14.8457C20.3547 16.3664 19.2104 18.19 16.8728 20.4777L16.8717 20.4787L12.992 24.2977L9.12903 20.4794Z" fill="#6BC9FF" stroke="#4A91C5"/>
</g>
</g>
<g id="Icon_Master">
<g id="toll-booth">
<path id="Vector" d="M12.75 14.9999C13.3434 14.9999 13.9234 14.824 14.4167 14.4943C14.9101 14.1647 15.2946 13.6962 15.5217 13.148C15.7487 12.5998 15.8081 11.9966 15.6924 11.4147C15.5766 10.8327 15.2909 10.2982 14.8714 9.87862C14.4518 9.45906 13.9172 9.17334 13.3353 9.05758C12.7534 8.94183 12.1502 9.00124 11.602 9.2283C11.0538 9.45536 10.5853 9.83988 10.2556 10.3332C9.92598 10.8266 9.75003 11.4066 9.75003 11.9999C9.75003 12.7956 10.0661 13.5587 10.6287 14.1213C11.1913 14.6839 11.9544 14.9999 12.75 14.9999ZM12.5 9.99994H13.5V13.9999H12.5V11.2499H11.5L12.5 9.99994ZM18 14.9999V15.4999C18 15.8978 17.842 16.2793 17.5607 16.5606C17.2794 16.8419 16.8979 16.9999 16.5 16.9999H9.50003C9.10221 16.9999 8.72068 16.8419 8.43937 16.5606C8.15807 16.2793 8.00003 15.8978 8.00003 15.4999V14.9999C7.99751 14.6307 8.13131 14.2734 8.37579 13.9966C8.62027 13.7199 8.95826 13.543 9.32503 13.4999C9.48228 13.866 9.69848 14.2038 9.96503 14.4999H9.00003V15.9999H17V14.4999H15.535C15.8044 14.2039 16.0239 13.8662 16.185 13.4999H16.5C16.8979 13.4999 17.2794 13.658 17.5607 13.9393C17.842 14.2206 18 14.6021 18 14.9999ZM12.75 8.24994C12.6534 8.24483 12.5566 8.24483 12.46 8.24994C12.7667 7.81705 13.2031 7.49294 13.7061 7.32447C14.2092 7.15601 14.7528 7.15193 15.2583 7.31282C15.7638 7.47372 16.205 7.79124 16.5181 8.21948C16.8312 8.64771 17 9.16444 17 9.69494C16.9984 10.2695 16.7949 10.8252 16.425 11.2649C16.2552 10.4152 15.7963 9.65042 15.1263 9.10076C14.4563 8.55111 13.6166 8.25046 12.75 8.24994Z" fill="white"/>
</g>
</g>
</g>
</g>
</svg>
