<svg width="26" height="26" viewBox="0 0 26 26" fill="none" xmlns="http://www.w3.org/2000/svg">
<g id="default / waterfall">
<g id="POI-base">
<g id="Category_Master">
<g id="Baseshape_Pin">
<path id="shape" d="M9.12903 20.4794L9.12726 20.4777C6.78964 18.19 5.64527 16.3664 5.07698 14.8457C4.50986 13.3281 4.5 12.0735 4.5 10.8565C4.5 6.24879 8.30485 2.5 12.9913 2.5C17.6791 2.5 21.5 6.25003 21.5 10.8565C21.5 12.0735 21.4901 13.3281 20.923 14.8457C20.3547 16.3664 19.2104 18.19 16.8728 20.4777L16.8717 20.4787L12.992 24.2977L9.12903 20.4794Z" fill="#359C7B" stroke="#267369"/>
</g>
</g>
<g id="Icon_Master">
<g id="waterfall">
<path id="Vector" d="M18 12.725V13.725C17.815 13.725 17.74 13.785 17.555 13.965C17.41 14.1228 17.2338 14.2488 17.0376 14.3349C16.8413 14.421 16.6293 14.4653 16.415 14.465C16.2003 14.4681 15.9874 14.4251 15.7907 14.3388C15.594 14.2526 15.4181 14.1251 15.275 13.965C15.09 13.785 15.015 13.725 14.83 13.725C14.645 13.725 14.57 13.785 14.385 13.965C14.2442 14.1288 14.0696 14.2603 13.8733 14.3504C13.677 14.4405 13.4635 14.4872 13.2475 14.4872C13.0315 14.4872 12.818 14.4405 12.6217 14.3504C12.4254 14.2603 12.2508 14.1288 12.11 13.965C11.92 13.785 11.85 13.725 11.665 13.725C11.48 13.725 11.405 13.785 11.22 13.965C11.0792 14.1288 10.9046 14.2603 10.7083 14.3504C10.512 14.4405 10.2985 14.4872 10.0825 14.4872C9.86648 14.4872 9.653 14.4405 9.45668 14.3504C9.26036 14.2603 9.08582 14.1288 8.945 13.965C8.76 13.785 8.685 13.725 8.5 13.725V12.725C8.71351 12.7251 8.92467 12.7696 9.12006 12.8557C9.31545 12.9418 9.49081 13.0675 9.635 13.225C9.825 13.405 9.895 13.465 10.08 13.465C10.265 13.465 10.34 13.405 10.525 13.225C10.6724 13.079 10.841 12.9559 11.025 12.86V9C11.025 8.86655 10.9984 8.73444 10.9466 8.61145C10.8947 8.48847 10.8188 8.3771 10.7233 8.28391C10.6278 8.19071 10.5146 8.11758 10.3904 8.06882C10.2661 8.02006 10.1334 7.99666 10 8H9.5V7H13.5C14.0304 7 14.5391 7.21071 14.9142 7.58579C15.2893 7.96086 15.5 8.46957 15.5 9V12.885C15.6712 12.9824 15.8278 13.1036 15.965 13.245C16.155 13.425 16.23 13.485 16.415 13.485C16.6 13.485 16.675 13.425 16.86 13.245C17.003 13.0833 17.1783 12.9534 17.3747 12.8638C17.5711 12.7742 17.7841 12.7269 18 12.725ZM18 16.225V15.225C17.815 15.225 17.74 15.285 17.555 15.465C17.41 15.6228 17.2338 15.7488 17.0376 15.8349C16.8413 15.921 16.6293 15.9653 16.415 15.965C16.2003 15.9681 15.9874 15.9251 15.7907 15.8388C15.594 15.7526 15.4181 15.6251 15.275 15.465C15.09 15.285 15.015 15.225 14.83 15.225C14.645 15.225 14.57 15.285 14.385 15.465C14.2442 15.6288 14.0696 15.7603 13.8733 15.8504C13.677 15.9405 13.4635 15.9872 13.2475 15.9872C13.0315 15.9872 12.818 15.9405 12.6217 15.8504C12.4254 15.7603 12.2508 15.6288 12.11 15.465C11.92 15.285 11.85 15.225 11.665 15.225C11.48 15.225 11.405 15.285 11.22 15.465C11.0792 15.6288 10.9046 15.7603 10.7083 15.8504C10.512 15.9405 10.2985 15.9872 10.0825 15.9872C9.86648 15.9872 9.653 15.9405 9.45668 15.8504C9.26036 15.7603 9.08582 15.6288 8.945 15.465C8.76 15.285 8.685 15.225 8.5 15.225V16.41C8.93795 16.7913 9.4993 17.001 10.08 17C10.6604 17.0059 11.2234 16.8017 11.665 16.425C12.1039 16.8029 12.6658 17.0074 13.245 17C13.8254 17.0059 14.3884 16.8017 14.83 16.425C15.2745 16.7969 15.8355 17.0006 16.415 17.0006C16.9945 17.0006 17.5555 16.7969 18 16.425V16.225Z" fill="white"/>
</g>
</g>
</g>
</g>
</svg>
