<svg width="26" height="26" viewBox="0 0 26 26" fill="none" xmlns="http://www.w3.org/2000/svg">
<g id="default / airport">
<g id="POI-base">
<g id="Category_Master">
<g id="Baseshape_Dot">
<path id="Outline Outside" d="M4.5 12C4.5 7.30558 8.30558 3.5 13 3.5C17.6944 3.5 21.5 7.30558 21.5 12C21.5 16.6944 17.6944 20.5 13 20.5C8.30558 20.5 4.5 16.6944 4.5 12Z" fill="#6BC9FF" stroke="#4A91C5"/>
</g>
</g>
<g id="Icon_Master">
<g id="airport">
<path id="Vector" d="M16.195 10.2751L16.66 15.8451L15.5 17.0001L14 12.3801C13.1468 13.1433 12.2539 13.861 11.325 14.5301L11.79 16.1001L11.325 16.5701L10.36 15.1251C10.065 15.2651 9.86 15.3151 9.77 15.2301C9.68 15.1451 9.735 14.9351 9.875 14.6451L8.435 13.6801L8.905 13.2151L10.345 13.8601C11.0399 12.8607 11.7964 11.9055 12.61 11.0001L8 9.50006L9.155 8.34006L14.745 8.78506C16.61 7.02006 17.47 6.78506 17.85 7.15006C18.23 7.51506 18 8.39506 16.195 10.2751Z" fill="white"/>
</g>
</g>
</g>
</g>
</svg>
