<svg width="26" height="26" viewBox="0 0 26 26" fill="none" xmlns="http://www.w3.org/2000/svg">
<g id="default / amusement-park">
<g id="POI-base">
<g id="Category_Master">
<g id="Baseshape_Pin">
<path id="shape" d="M9.12903 20.4794L9.12726 20.4777C6.78964 18.19 5.64527 16.3664 5.07698 14.8457C4.50986 13.3281 4.5 12.0735 4.5 10.8565C4.5 6.24879 8.30485 2.5 12.9913 2.5C17.6791 2.5 21.5 6.25003 21.5 10.8565C21.5 12.0735 21.4901 13.3281 20.923 14.8457C20.3547 16.3664 19.2104 18.19 16.8728 20.4777L16.8717 20.4787L12.992 24.2977L9.12903 20.4794Z" fill="#45BF94" stroke="#308C7A"/>
</g>
</g>
<g id="Icon_Master">
<g id="amusement-park">
<path id="Vector" d="M16.25 11.75C16.2502 11.1558 16.0874 10.5729 15.7795 10.0647C15.4715 9.55653 15.0301 9.14251 14.5033 8.86765C13.9765 8.5928 13.3844 8.46764 12.7914 8.50579C12.1984 8.54393 11.6272 8.74392 11.1399 9.084C10.6527 9.42409 10.268 9.89125 10.0276 10.4347C9.78733 10.9782 9.7006 11.5771 9.7769 12.1664C9.8532 12.7557 10.0896 13.3128 10.4604 13.7771C10.8312 14.2414 11.3222 14.5952 11.88 14.8L11 17H15L14.12 14.8C14.7437 14.5695 15.282 14.1538 15.6628 13.6087C16.0435 13.0635 16.2484 12.4149 16.25 11.75ZM13.75 13.865L13.19 12.465C13.298 12.422 13.3877 12.3427 13.4435 12.2407C13.4994 12.1387 13.518 12.0205 13.496 11.9063C13.4741 11.7921 13.4131 11.6891 13.3235 11.6151C13.2339 11.541 13.1213 11.5005 13.005 11.5005C12.8887 11.5005 12.7761 11.541 12.6865 11.6151C12.5969 11.6891 12.5359 11.7921 12.514 11.9063C12.4921 12.0205 12.5106 12.1387 12.5665 12.2407C12.6223 12.3427 12.712 12.422 12.82 12.465L12.26 13.865C11.7596 13.6881 11.3378 13.3399 11.0693 12.8821C10.8007 12.4243 10.7026 11.8863 10.7924 11.3632C10.8822 10.8401 11.154 10.3655 11.5598 10.0234C11.9656 9.68131 12.4792 9.49368 13.01 9.49368C13.5408 9.49368 14.0544 9.68131 14.4602 10.0234C14.866 10.3655 15.1378 10.8401 15.2276 11.3632C15.3173 11.8863 15.2193 12.4243 14.9507 12.8821C14.6822 13.3399 14.2604 13.6881 13.76 13.865H13.75ZM9 9V8.5H10.5V9C10.5 9.13261 10.4473 9.25979 10.3536 9.35355C10.2598 9.44732 10.1326 9.5 10 9.5H9.5C9.36739 9.5 9.24021 9.44732 9.14645 9.35355C9.05268 9.25979 9 9.13261 9 9ZM12.25 7.5V7H13.75V7.5C13.75 7.63261 13.6973 7.75979 13.6036 7.85355C13.5098 7.94732 13.3826 8 13.25 8H12.75C12.6174 8 12.4902 7.94732 12.3964 7.85355C12.3027 7.75979 12.25 7.63261 12.25 7.5ZM15.5 9V8.5H17V9C17 9.13261 16.9473 9.25979 16.8536 9.35355C16.7598 9.44732 16.6326 9.5 16.5 9.5H16C15.8674 9.5 15.7402 9.44732 15.6464 9.35355C15.5527 9.25979 15.5 9.13261 15.5 9ZM9 12.5H8.5C8.36739 12.5 8.24021 12.4473 8.14645 12.3536C8.05268 12.2598 8 12.1326 8 12V11.5H9.5V12C9.5 12.1326 9.44732 12.2598 9.35355 12.3536C9.25979 12.4473 9.13261 12.5 9 12.5ZM18 12C18 12.1326 17.9473 12.2598 17.8536 12.3536C17.7598 12.4473 17.6326 12.5 17.5 12.5H17C16.8674 12.5 16.7402 12.4473 16.6464 12.3536C16.5527 12.2598 16.5 12.1326 16.5 12V11.5H18V12ZM9 14.5H10.5V15C10.5 15.1326 10.4473 15.2598 10.3536 15.3536C10.2598 15.4473 10.1326 15.5 10 15.5H9.5C9.36739 15.5 9.24021 15.4473 9.14645 15.3536C9.05268 15.2598 9 15.1326 9 15V14.5ZM15.5 14.5H17V15C17 15.1326 16.9473 15.2598 16.8536 15.3536C16.7598 15.4473 16.6326 15.5 16.5 15.5H16C15.8674 15.5 15.7402 15.4473 15.6464 15.3536C15.5527 15.2598 15.5 15.1326 15.5 15V14.5Z" fill="white"/>
</g>
</g>
</g>
</g>
</svg>
