<svg width="26" height="26" viewBox="0 0 26 26" fill="none" xmlns="http://www.w3.org/2000/svg">
<g id="default / bank">
<g id="POI-base">
<g id="Category_Master">
<g id="Baseshape_Pin">
<path id="shape" d="M9.12903 20.4794L9.12726 20.4777C6.78964 18.19 5.64527 16.3664 5.07698 14.8457C4.50986 13.3281 4.5 12.0735 4.5 10.8565C4.5 6.24879 8.30485 2.5 12.9913 2.5C17.6791 2.5 21.5 6.25003 21.5 10.8565C21.5 12.0735 21.4901 13.3281 20.923 14.8457C20.3547 16.3664 19.2104 18.19 16.8728 20.4777L16.8717 20.4787L12.992 24.2977L9.12903 20.4794Z" fill="#A0B1DA" stroke="#7182AB"/>
</g>
</g>
<g id="Icon_Master">
<g id="bank">
<path id="Vector" d="M13.9999 15.435V17H12.4999V15.56C11.7118 15.5045 10.9684 15.1735 10.3999 14.625L11.0899 13.855C11.5869 14.3057 12.2339 14.5553 12.9049 14.555C13.6549 14.555 14.1949 14.19 14.1949 13.505C14.1949 12.915 13.8999 12.65 12.7999 12.315C11.3249 11.86 10.6849 11.27 10.6849 10.2C10.6849 9.13 11.4249 8.5 12.4999 8.32V7H13.9999V8.375C14.5219 8.49747 15.0028 8.75429 15.3949 9.12L14.7349 9.885C14.3012 9.49877 13.7407 9.28526 13.1599 9.285C12.5249 9.285 12.0699 9.57 12.0699 10.12C12.0699 10.67 12.3449 10.85 13.5149 11.22C14.6849 11.59 15.5999 12.115 15.5999 13.435C15.6017 13.901 15.444 14.3535 15.1529 14.7174C14.8618 15.0813 14.4549 15.3345 13.9999 15.435Z" fill="white"/>
</g>
</g>
</g>
</g>
</svg>
