<svg width="26" height="26" viewBox="0 0 26 26" fill="none" xmlns="http://www.w3.org/2000/svg">
<g id="default / beach">
<g id="POI-base">
<g id="Category_Master">
<g id="Baseshape_Pin">
<path id="shape" d="M9.12903 20.4794L9.12726 20.4777C6.78964 18.19 5.64527 16.3664 5.07698 14.8457C4.50986 13.3281 4.5 12.0735 4.5 10.8565C4.5 6.24879 8.30485 2.5 12.9913 2.5C17.6791 2.5 21.5 6.25003 21.5 10.8565C21.5 12.0735 21.4901 13.3281 20.923 14.8457C20.3547 16.3664 19.2104 18.19 16.8728 20.4777L16.8717 20.4787L12.992 24.2977L9.12903 20.4794Z" fill="#45BF94" stroke="#308C7A"/>
</g>
</g>
<g id="Icon_Master">
<g id="beach">
<path id="Vector" d="M18 10.69C18.0027 10.7938 17.9849 10.897 17.9476 10.9939C17.9103 11.0907 17.8544 11.1793 17.7828 11.2545C17.7113 11.3298 17.6257 11.3902 17.5309 11.4323C17.436 11.4744 17.3338 11.4974 17.23 11.5H16C15.898 11.4997 15.7971 11.4787 15.7035 11.4383C15.6098 11.3979 15.5253 11.339 15.455 11.265L14.925 10.69L14.38 11.265C14.3098 11.339 14.2252 11.3979 14.1316 11.4383C14.0379 11.4787 13.937 11.4997 13.835 11.5H12.165C12.063 11.4997 11.9621 11.4787 11.8685 11.4383C11.7748 11.3979 11.6903 11.339 11.62 11.265L11.075 10.69L10.535 11.265C10.4659 11.3378 10.383 11.396 10.2912 11.4364C10.1993 11.4767 10.1003 11.4983 10 11.5H8.77002C8.66626 11.4974 8.56403 11.4744 8.46918 11.4323C8.37432 11.3902 8.28869 11.3298 8.21718 11.2545C8.14568 11.1793 8.08969 11.0907 8.05243 10.9939C8.01517 10.897 7.99736 10.7938 8.00002 10.69C9.04502 9.155 10.145 8 12.525 8H12.735V7.25H13.235V8H13.5C15.855 8 16.955 9.155 18 10.69ZM12.615 12.5L12.5 16.5H13.5L13.385 12.5H12.615Z" fill="white"/>
</g>
</g>
</g>
</g>
</svg>
