<svg width="26" height="26" viewBox="0 0 26 26" fill="none" xmlns="http://www.w3.org/2000/svg">
<g id="default / bus">
<g id="POI-base">
<g id="Category_Master">
<g id="Baseshape_Dot">
<path id="Outline Outside" d="M4.5 12C4.5 7.30558 8.30558 3.5 13 3.5C17.6944 3.5 21.5 7.30558 21.5 12C21.5 16.6944 17.6944 20.5 13 20.5C8.30558 20.5 4.5 16.6944 4.5 12Z" fill="#6BC9FF" stroke="#4A91C5"/>
</g>
</g>
<g id="Icon_Master">
<g id="bus">
<path id="Vector" d="M17 9V7.75C17 7.55109 16.921 7.36032 16.7803 7.21967C16.6397 7.07902 16.4489 7 16.25 7H9.75C9.55109 7 9.36032 7.07902 9.21967 7.21967C9.07902 7.36032 9 7.55109 9 7.75V9H8.5V11H9V16.5C9 16.6326 9.05268 16.7598 9.14645 16.8536C9.24021 16.9473 9.36739 17 9.5 17H10.5C10.6326 17 10.7598 16.9473 10.8536 16.8536C10.9473 16.7598 11 16.6326 11 16.5V16H15V16.5C15 16.6326 15.0527 16.7598 15.1464 16.8536C15.2402 16.9473 15.3674 17 15.5 17H16.5C16.6326 17 16.7598 16.9473 16.8536 16.8536C16.9473 16.7598 17 16.6326 17 16.5V11H17.5V9H17ZM10 8H16V9H10V8ZM10 10H16V13H10V10ZM11.5 15H10.25C10.1724 14.9418 10.1094 14.8663 10.066 14.7795C10.0226 14.6927 10 14.597 10 14.5C10 14.403 10.0226 14.3073 10.066 14.2205C10.1094 14.1337 10.1724 14.0582 10.25 14H11.5V15ZM14.5 14H15.75C15.8276 14.0582 15.8906 14.1337 15.934 14.2205C15.9774 14.3073 16 14.403 16 14.5C16 14.597 15.9774 14.6927 15.934 14.7795C15.8906 14.8663 15.8276 14.9418 15.75 15H14.5V14Z" fill="white"/>
</g>
</g>
</g>
</g>
</svg>
