<svg width="26" height="26" viewBox="0 0 26 26" fill="none" xmlns="http://www.w3.org/2000/svg">
<g id="default / business">
<g id="POI-base">
<g id="Category_Master">
<g id="Baseshape_Pin">
<path id="shape" d="M9.12903 20.4794L9.12726 20.4777C6.78964 18.19 5.64527 16.3664 5.07698 14.8457C4.50986 13.3281 4.5 12.0735 4.5 10.8565C4.5 6.24879 8.30485 2.5 12.9913 2.5C17.6791 2.5 21.5 6.25003 21.5 10.8565C21.5 12.0735 21.4901 13.3281 20.923 14.8457C20.3547 16.3664 19.2104 18.19 16.8728 20.4777L16.8717 20.4787L12.992 24.2977L9.12903 20.4794Z" fill="#A0B1DA" stroke="#7182AB"/>
</g>
</g>
<g id="Icon_Master">
<g id="business">
<path id="Vector" d="M8 9.5H10V11H9V12.5H10V14H9V15.5H10V17H8V9.5ZM18 8V17H15V14.5H14V17H11V8H18ZM13 14.5H12V16H13V14.5ZM13 12H12V13.5H13V12ZM13 9.5H12V11H13V9.5ZM15 12H14V13.5H15V12ZM15 9.5H14V11H15V9.5ZM17 14.5H16V16H17V14.5ZM17 12H16V13.5H17V12ZM17 9.5H16V11H17V9.5Z" fill="white"/>
</g>
</g>
</g>
</g>
</svg>
