<svg width="26" height="26" viewBox="0 0 26 26" fill="none" xmlns="http://www.w3.org/2000/svg">
<g id="default / cable-way">
<g id="POI-base">
<g id="Category_Master">
<g id="Baseshape_Dot">
<path id="Outline Outside" d="M4.5 12C4.5 7.30558 8.30558 3.5 13 3.5C17.6944 3.5 21.5 7.30558 21.5 12C21.5 16.6944 17.6944 20.5 13 20.5C8.30558 20.5 4.5 16.6944 4.5 12Z" fill="#6BC9FF" stroke="#4A91C5"/>
</g>
</g>
<g id="Icon_Master">
<g id="cable-way">
<path id="Vector" d="M18 8V7L8 8.25V9.25L12.5 8.685V10.5H8.86C8.63191 10.5 8.41317 10.5906 8.25189 10.7519C8.09061 10.9132 8 11.1319 8 11.36V15C8 15.5304 8.21071 16.0391 8.58579 16.4142C8.96086 16.7893 9.46957 17 10 17H16C16.5304 17 17.0391 16.7893 17.4142 16.4142C17.7893 16.0391 18 15.5304 18 15V11.36C18 11.1319 17.9094 10.9132 17.7481 10.7519C17.5868 10.5906 17.3681 10.5 17.14 10.5H13.5V8.565L18 8ZM12.5 14.25H9.5V11.5H12.5V14.25ZM13.5 11.5H16.5V14.25H13.5V11.5Z" fill="white"/>
</g>
</g>
</g>
</g>
</svg>
