<svg width="26" height="26" viewBox="0 0 26 26" fill="none" xmlns="http://www.w3.org/2000/svg">
<g id="default / car-charging">
<g id="POI-base">
<g id="Category_Master">
<g id="Baseshape_Pin">
<path id="shape" d="M9.12903 20.4794L9.12726 20.4777C6.78964 18.19 5.64527 16.3664 5.07698 14.8457C4.50986 13.3281 4.5 12.0735 4.5 10.8565C4.5 6.24879 8.30485 2.5 12.9913 2.5C17.6791 2.5 21.5 6.25003 21.5 10.8565C21.5 12.0735 21.4901 13.3281 20.923 14.8457C20.3547 16.3664 19.2104 18.19 16.8728 20.4777L16.8717 20.4787L12.992 24.2977L9.12903 20.4794Z" fill="#6BC9FF" stroke="#4A91C5"/>
</g>
</g>
<g id="Icon_Master">
<g id="car-charging">
<path id="Vector" d="M16.8799 12.5L16.3799 11.35C16.2742 11.1009 16.0984 10.8879 15.8737 10.737C15.6491 10.5861 15.3855 10.5037 15.1149 10.5H10.8849C10.616 10.5056 10.3545 10.5889 10.1319 10.7397C9.90923 10.8905 9.73491 11.1024 9.62991 11.35L9.12991 12.5H8.24991C8.17403 12.5594 8.11267 12.6353 8.07048 12.7219C8.02828 12.8085 8.00635 12.9036 8.00635 13C8.00635 13.0964 8.02828 13.1915 8.07048 13.2781C8.11267 13.3647 8.17403 13.4406 8.24991 13.5H8.49991V16.5C8.49991 16.6326 8.55259 16.7598 8.64635 16.8536C8.74012 16.9473 8.8673 17 8.99991 17H10.4999C10.6325 17 10.7597 16.9473 10.8535 16.8536C10.9472 16.7598 10.9999 16.6326 10.9999 16.5V16H14.9999V16.5C14.9999 16.6326 15.0526 16.7598 15.1464 16.8536C15.2401 16.9473 15.3673 17 15.4999 17H16.9999C17.1325 17 17.2597 16.9473 17.3535 16.8536C17.4472 16.7598 17.4999 16.6326 17.4999 16.5V13.5H17.7499C17.8266 13.4412 17.8888 13.3655 17.9316 13.2788C17.9744 13.1921 17.9966 13.0967 17.9966 13C17.9966 12.9033 17.9744 12.8079 17.9316 12.7212C17.8888 12.6345 17.8266 12.5588 17.7499 12.5H16.8799ZM10.5449 11.755C10.5714 11.6845 10.6175 11.6231 10.6777 11.5779C10.7379 11.5327 10.8098 11.5057 10.8849 11.5H15.1149C15.19 11.5057 15.2619 11.5327 15.3221 11.5779C15.3824 11.6231 15.4284 11.6845 15.4549 11.755L15.9999 13H9.99991L10.5449 11.755ZM10.9999 15H9.74991C9.67229 14.9418 9.60928 14.8663 9.56589 14.7795C9.5225 14.6927 9.49991 14.597 9.49991 14.5C9.49991 14.403 9.5225 14.3073 9.56589 14.2205C9.60928 14.1337 9.67229 14.0582 9.74991 14H10.9999V15ZM16.2499 15H14.9999V14H16.2499C16.3275 14.0582 16.3905 14.1337 16.4339 14.2205C16.4773 14.3073 16.4999 14.403 16.4999 14.5C16.4999 14.597 16.4773 14.6927 16.4339 14.7795C16.3905 14.8663 16.3275 14.9418 16.2499 15ZM14.9999 9H16.4999V9.25C16.4999 9.38261 16.4472 9.50979 16.3535 9.60355C16.2597 9.69732 16.1325 9.75 15.9999 9.75H14.9999V9ZM14.4999 10H12.4999C12.2347 10 11.9803 9.89464 11.7928 9.70711C11.6053 9.51957 11.4999 9.26522 11.4999 9H9.49991C9.42229 8.94178 9.35928 8.86629 9.31589 8.77951C9.2725 8.69272 9.24991 8.59703 9.24991 8.5C9.24991 8.40297 9.2725 8.30728 9.31589 8.22049C9.35928 8.13371 9.42229 8.05822 9.49991 8H11.4999C11.4999 7.73478 11.6053 7.48043 11.7928 7.29289C11.9803 7.10536 12.2347 7 12.4999 7H14.4999V10ZM15.9999 7.255C16.1325 7.255 16.2597 7.30768 16.3535 7.40145C16.4472 7.49521 16.4999 7.62239 16.4999 7.755V8H14.9999V7.25L15.9999 7.255Z" fill="white"/>
</g>
</g>
</g>
</g>
</svg>
