<svg width="26" height="26" viewBox="0 0 26 26" fill="none" xmlns="http://www.w3.org/2000/svg">
<g id="default / car-wash">
<g id="POI-base">
<g id="Category_Master">
<g id="Baseshape_Pin">
<path id="shape" d="M9.12903 20.4794L9.12726 20.4777C6.78964 18.19 5.64527 16.3664 5.07698 14.8457C4.50986 13.3281 4.5 12.0735 4.5 10.8565C4.5 6.24879 8.30485 2.5 12.9913 2.5C17.6791 2.5 21.5 6.25003 21.5 10.8565C21.5 12.0735 21.4901 13.3281 20.923 14.8457C20.3547 16.3664 19.2104 18.19 16.8728 20.4777L16.8717 20.4787L12.992 24.2977L9.12903 20.4794Z" fill="#A0B1DA" stroke="#7182AB"/>
</g>
</g>
<g id="Icon_Master">
<g id="car-wash">
<path id="Vector" d="M14.75 8C14.75 7.80222 14.8086 7.60888 14.9185 7.44443C15.0284 7.27998 15.1846 7.15181 15.3673 7.07612C15.55 7.00043 15.7511 6.98063 15.9451 7.01922C16.1391 7.0578 16.3173 7.15304 16.4571 7.29289C16.597 7.43275 16.6922 7.61093 16.7308 7.80491C16.7694 7.99889 16.7496 8.19996 16.6739 8.38268C16.5982 8.56541 16.47 8.72159 16.3056 8.83147C16.1411 8.94135 15.9478 9 15.75 9C15.4848 9 15.2304 8.89464 15.0429 8.70711C14.8554 8.51957 14.75 8.26522 14.75 8ZM13 9C13.1978 9 13.3911 8.94135 13.5556 8.83147C13.72 8.72159 13.8482 8.56541 13.9239 8.38268C13.9996 8.19996 14.0194 7.99889 13.9808 7.80491C13.9422 7.61093 13.847 7.43275 13.7071 7.29289C13.5673 7.15304 13.3891 7.0578 13.1951 7.01922C13.0011 6.98063 12.8 7.00043 12.6173 7.07612C12.4346 7.15181 12.2784 7.27998 12.1685 7.44443C12.0586 7.60888 12 7.80222 12 8C12 8.26522 12.1054 8.51957 12.2929 8.70711C12.4804 8.89464 12.7348 9 13 9ZM17.5 11C17.6761 10.9982 17.8486 10.9499 18 10.86V9.14C17.8673 9.06127 17.7181 9.01432 17.5642 9.00283C17.4104 8.99134 17.2559 9.01562 17.113 9.07377C16.97 9.13193 16.8425 9.22237 16.7403 9.33803C16.6381 9.45369 16.5641 9.59142 16.5241 9.74045C16.484 9.88948 16.479 10.0458 16.5094 10.197C16.5398 10.3483 16.6048 10.4905 16.6993 10.6125C16.7938 10.7345 16.9153 10.833 17.0542 10.9002C17.1931 10.9674 17.3457 11.0016 17.5 11ZM8 10.86C8.15183 10.9501 8.32481 10.9984 8.50135 11C8.67789 11.0015 8.8517 10.9564 9.00512 10.869C9.15854 10.7816 9.2861 10.6552 9.37482 10.5026C9.46355 10.3499 9.51029 10.1765 9.51029 10C9.51029 9.82345 9.46355 9.65005 9.37482 9.49742C9.2861 9.34479 9.15854 9.21837 9.00512 9.13101C8.8517 9.04365 8.67789 8.99846 8.50135 9.00004C8.32481 9.00162 8.15183 9.04991 8 9.14V10.86ZM16.88 12.5H17.75C17.8276 12.5582 17.8906 12.6337 17.934 12.7205C17.9774 12.8073 18 12.903 18 13C18 13.097 17.9774 13.1927 17.934 13.2795C17.8906 13.3663 17.8276 13.4418 17.75 13.5H17.5V16.5C17.5 16.6326 17.4473 16.7598 17.3536 16.8536C17.2598 16.9473 17.1326 17 17 17H15.5C15.3674 17 15.2402 16.9473 15.1464 16.8536C15.0527 16.7598 15 16.6326 15 16.5V16H11V16.5C11 16.6326 10.9473 16.7598 10.8536 16.8536C10.7598 16.9473 10.6326 17 10.5 17H9C8.86739 17 8.74021 16.9473 8.64645 16.8536C8.55268 16.7598 8.5 16.6326 8.5 16.5V13.5H8.25C8.17238 13.4418 8.10938 13.3663 8.06598 13.2795C8.02259 13.1927 8 13.097 8 13C8 12.903 8.02259 12.8073 8.06598 12.7205C8.10938 12.6337 8.17238 12.5582 8.25 12.5H9.12L9.62 11.35C9.72569 11.1009 9.90156 10.8879 10.1262 10.737C10.3508 10.5861 10.6144 10.5037 10.885 10.5H15.115C15.3839 10.5056 15.6454 10.5889 15.868 10.7397C16.0907 10.8905 16.265 11.1024 16.37 11.35L16.88 12.5ZM11 14H9.75C9.67238 14.0582 9.60938 14.1337 9.56598 14.2205C9.52259 14.3073 9.5 14.403 9.5 14.5C9.5 14.597 9.52259 14.6927 9.56598 14.7795C9.60938 14.8663 9.67238 14.9418 9.75 15H11V14ZM16 13L15.445 11.755C15.4185 11.6845 15.3725 11.6231 15.3122 11.5779C15.252 11.5327 15.1801 11.5057 15.105 11.5H10.885C10.8099 11.5057 10.738 11.5327 10.6778 11.5779C10.6175 11.6231 10.5715 11.6845 10.545 11.755L10 13H16ZM16.245 14H15V15H16.255C16.605 14.69 16.58 14.355 16.255 14H16.245ZM10.25 9C10.4478 9 10.6411 8.94135 10.8056 8.83147C10.97 8.72159 11.0982 8.56541 11.1739 8.38268C11.2496 8.19996 11.2694 7.99889 11.2308 7.80491C11.1922 7.61093 11.097 7.43275 10.9571 7.29289C10.8173 7.15304 10.6391 7.0578 10.4451 7.01922C10.2511 6.98063 10.05 7.00043 9.86732 7.07612C9.68459 7.15181 9.52841 7.27998 9.41853 7.44443C9.30865 7.60888 9.25 7.80222 9.25 8C9.25 8.26522 9.35536 8.51957 9.54289 8.70711C9.73043 8.89464 9.98478 9 10.25 9Z" fill="white"/>
</g>
</g>
</g>
</g>
</svg>
