<svg width="26" height="26" viewBox="0 0 26 26" fill="none" xmlns="http://www.w3.org/2000/svg">
<g id="default / car-rental">
<g id="POI-base">
<g id="Category_Master">
<g id="Baseshape_Pin">
<path id="shape" d="M9.12903 20.4794L9.12726 20.4777C6.78964 18.19 5.64527 16.3664 5.07698 14.8457C4.50986 13.3281 4.5 12.0735 4.5 10.8565C4.5 6.24879 8.30485 2.5 12.9913 2.5C17.6791 2.5 21.5 6.25003 21.5 10.8565C21.5 12.0735 21.4901 13.3281 20.923 14.8457C20.3547 16.3664 19.2104 18.19 16.8728 20.4777L16.8717 20.4787L12.992 24.2977L9.12903 20.4794Z" fill="#A0B1DA" stroke="#7182AB"/>
</g>
</g>
<g id="Icon_Master">
<g id="car-rental">
<path id="Vector" d="M9.855 10H12L12.375 9.25H13.75L14.25 8.75L14.75 9.25H16L16.735 8.5L16 7.75H12.375L12 7H9.855C9.62864 7.00131 9.41193 7.09181 9.25187 7.25187C9.09181 7.41193 9.00131 7.62864 9 7.855V9.14C8.99934 9.2527 9.02097 9.36442 9.06364 9.46873C9.10631 9.57304 9.16919 9.66789 9.24865 9.74781C9.32811 9.82774 9.42259 9.89116 9.52665 9.93444C9.63071 9.97772 9.7423 10 9.855 10ZM10 8H11.5V9H10V8ZM16.89 12.5L16.39 11.35C16.2838 11.1013 16.1078 10.8886 15.8833 10.7378C15.6588 10.5869 15.3954 10.5043 15.125 10.5H10.89C10.6218 10.506 10.3612 10.5894 10.1394 10.7402C9.91756 10.891 9.74413 11.1028 9.64 11.35L9.14 12.5H8.25C8.17238 12.5582 8.10938 12.6337 8.06598 12.7205C8.02259 12.8073 8 12.903 8 13C8 13.097 8.02259 13.1927 8.06598 13.2795C8.10938 13.3663 8.17238 13.4418 8.25 13.5H8.5V16.5C8.5 16.6326 8.55268 16.7598 8.64645 16.8536C8.74021 16.9473 8.86739 17 9 17H10.5C10.6326 17 10.7598 16.9473 10.8536 16.8536C10.9473 16.7598 11 16.6326 11 16.5V16H15V16.5C15 16.6326 15.0527 16.7598 15.1464 16.8536C15.2402 16.9473 15.3674 17 15.5 17H17C17.1326 17 17.2598 16.9473 17.3536 16.8536C17.4473 16.7598 17.5 16.6326 17.5 16.5V13.5H17.75C17.8276 13.4418 17.8906 13.3663 17.934 13.2795C17.9774 13.1927 18 13.097 18 13C18 12.903 17.9774 12.8073 17.934 12.7205C17.8906 12.6337 17.8276 12.5582 17.75 12.5H16.89ZM10.555 11.755C10.5806 11.6849 10.6258 11.6236 10.6851 11.5784C10.7445 11.5332 10.8156 11.506 10.89 11.5H15.125C15.2001 11.5057 15.272 11.5327 15.3322 11.5779C15.3925 11.6231 15.4385 11.6845 15.465 11.755L16 13H10L10.555 11.755ZM11 15H9.75C9.67238 14.9418 9.60938 14.8663 9.56598 14.7795C9.52259 14.6927 9.5 14.597 9.5 14.5C9.5 14.403 9.52259 14.3073 9.56598 14.2205C9.60938 14.1337 9.67238 14.0582 9.75 14H11V15ZM16.25 15H15V14H16.25C16.3276 14.0582 16.3906 14.1337 16.434 14.2205C16.4774 14.3073 16.5 14.403 16.5 14.5C16.5 14.597 16.4774 14.6927 16.434 14.7795C16.3906 14.8663 16.3276 14.9418 16.25 15Z" fill="white"/>
</g>
</g>
</g>
</g>
</svg>
