<svg width="26" height="26" viewBox="0 0 26 26" fill="none" xmlns="http://www.w3.org/2000/svg">
<g id="default / casino">
<g id="POI-base">
<g id="Category_Master">
<g id="Baseshape_Pin">
<path id="shape" d="M9.12903 20.4794L9.12726 20.4777C6.78964 18.19 5.64527 16.3664 5.07698 14.8457C4.50986 13.3281 4.5 12.0735 4.5 10.8565C4.5 6.24879 8.30485 2.5 12.9913 2.5C17.6791 2.5 21.5 6.25003 21.5 10.8565C21.5 12.0735 21.4901 13.3281 20.923 14.8457C20.3547 16.3664 19.2104 18.19 16.8728 20.4777L16.8717 20.4787L12.992 24.2977L9.12903 20.4794Z" fill="#ED97C2" stroke="#A66F9A"/>
</g>
</g>
<g id="Icon_Master">
<g id="casino">
<path id="Vector" d="M16.75 7.5H9.25C9.05109 7.5 8.86032 7.57902 8.71967 7.71967C8.57902 7.86032 8.5 8.05109 8.5 8.25V15.75C8.5 15.9489 8.57902 16.1397 8.71967 16.2803C8.86032 16.421 9.05109 16.5 9.25 16.5H16.75C16.9489 16.5 17.1397 16.421 17.2803 16.2803C17.421 16.1397 17.5 15.9489 17.5 15.75V8.25C17.5 8.05109 17.421 7.86032 17.2803 7.71967C17.1397 7.57902 16.9489 7.5 16.75 7.5ZM10.5 15.75C10.2528 15.75 10.0111 15.6767 9.80554 15.5393C9.59998 15.402 9.43976 15.2068 9.34515 14.9784C9.25054 14.7499 9.22579 14.4986 9.27402 14.2561C9.32225 14.0137 9.4413 13.7909 9.61612 13.6161C9.79093 13.4413 10.0137 13.3222 10.2561 13.274C10.4986 13.2258 10.7499 13.2505 10.9784 13.3452C11.2068 13.4398 11.402 13.6 11.5393 13.8055C11.6767 14.0111 11.75 14.2528 11.75 14.5C11.75 14.8315 11.6183 15.1495 11.3839 15.3839C11.1495 15.6183 10.8315 15.75 10.5 15.75ZM13 13.25C12.7528 13.25 12.5111 13.1767 12.3055 13.0393C12.1 12.902 11.9398 12.7068 11.8452 12.4784C11.7505 12.2499 11.7258 11.9986 11.774 11.7561C11.8222 11.5137 11.9413 11.2909 12.1161 11.1161C12.2909 10.9413 12.5137 10.8222 12.7561 10.774C12.9986 10.7258 13.2499 10.7505 13.4784 10.8452C13.7068 10.9398 13.902 11.1 14.0393 11.3055C14.1767 11.5111 14.25 11.7528 14.25 12C14.25 12.3315 14.1183 12.6495 13.8839 12.8839C13.6495 13.1183 13.3315 13.25 13 13.25ZM15.5 10.75C15.2528 10.75 15.0111 10.6767 14.8055 10.5393C14.6 10.402 14.4398 10.2068 14.3452 9.97835C14.2505 9.74995 14.2258 9.49861 14.274 9.25614C14.3222 9.01366 14.4413 8.79093 14.6161 8.61612C14.7909 8.4413 15.0137 8.32225 15.2561 8.27402C15.4986 8.22579 15.7499 8.25054 15.9784 8.34515C16.2068 8.43976 16.402 8.59998 16.5393 8.80554C16.6767 9.0111 16.75 9.25277 16.75 9.5C16.75 9.83152 16.6183 10.1495 16.3839 10.3839C16.1495 10.6183 15.8315 10.75 15.5 10.75Z" fill="white"/>
</g>
</g>
</g>
</g>
</svg>
