<svg width="26" height="26" viewBox="0 0 26 26" fill="none" xmlns="http://www.w3.org/2000/svg">
<g id="default / cemetry">
<g id="POI-base">
<g id="Category_Master">
<g id="Baseshape_Pin">
<path id="shape" d="M9.12903 20.4794L9.12726 20.4777C6.78964 18.19 5.64527 16.3664 5.07698 14.8457C4.50986 13.3281 4.5 12.0735 4.5 10.8565C4.5 6.24879 8.30485 2.5 12.9913 2.5C17.6791 2.5 21.5 6.25003 21.5 10.8565C21.5 12.0735 21.4901 13.3281 20.923 14.8457C20.3547 16.3664 19.2104 18.19 16.8728 20.4777L16.8717 20.4787L12.992 24.2977L9.12903 20.4794Z" fill="#C19D95" stroke="#87737B"/>
</g>
</g>
<g id="Icon_Master">
<g id="cemetry">
<path id="Vector" d="M16.5 7.99997C16.5 7.86737 16.4473 7.74019 16.3536 7.64642C16.2598 7.55265 16.1326 7.49997 16 7.49997H14.75V7.24997C13.6074 6.91497 12.3926 6.91497 11.25 7.24997V7.49997H10C9.86739 7.49997 9.74021 7.55265 9.64645 7.64642C9.55268 7.74019 9.5 7.86737 9.5 7.99997L9.25 15H16.75L16.5 7.99997ZM15 12H11V11H15V12ZM15 9.99997H11V8.99997H15V9.99997ZM18 16V17H8V16H18Z" fill="white"/>
</g>
</g>
</g>
</g>
</svg>
