<svg width="26" height="26" viewBox="0 0 26 26" fill="none" xmlns="http://www.w3.org/2000/svg">
<g id="default / cocktail">
<g id="POI-base">
<g id="Category_Master">
<g id="Baseshape_Pin">
<path id="shape" d="M9.12903 20.4794L9.12726 20.4777C6.78964 18.19 5.64527 16.3664 5.07698 14.8457C4.50986 13.3281 4.5 12.0735 4.5 10.8565C4.5 6.24879 8.30485 2.5 12.9913 2.5C17.6791 2.5 21.5 6.25003 21.5 10.8565C21.5 12.0735 21.4901 13.3281 20.923 14.8457C20.3547 16.3664 19.2104 18.19 16.8728 20.4777L16.8717 20.4787L12.992 24.2977L9.12903 20.4794Z" fill="#ED97C2" stroke="#A66F9A"/>
</g>
</g>
<g id="Icon_Master">
<g id="cocktail">
<path id="Vector" d="M14.5 16H13.5C13.5 16 13.5 14.265 13.5 13.65C13.4997 13.3956 13.5962 13.1507 13.77 12.965L17.5 9H11.725L9.72505 7L9.13505 7.63L10.5 9H8.30005L12.21 12.95C12.3948 13.1363 12.4989 13.3877 12.5 13.65C12.5 14.285 12.5 16 12.5 16H11.5C11.2348 16 10.9805 16.1054 10.7929 16.2929C10.6054 16.4804 10.5 16.7348 10.5 17H15.5C15.5 16.7348 15.3947 16.4804 15.2072 16.2929C15.0196 16.1054 14.7653 16 14.5 16ZM13.5 12C13.3419 11.9988 13.1863 11.9602 13.0459 11.8872C12.9056 11.8142 12.7846 11.7089 12.6929 11.5801C12.6011 11.4513 12.5413 11.3025 12.5182 11.146C12.4951 10.9896 12.5094 10.8298 12.56 10.68C12.6266 10.483 12.7529 10.3116 12.9214 10.1897C13.0898 10.0679 13.2921 10.0015 13.5 10C13.6727 9.99716 13.8427 10.0424 13.991 10.1307C14.1394 10.219 14.2602 10.3469 14.34 10.5C14.4268 10.6501 14.473 10.8202 14.4742 10.9936C14.4754 11.167 14.4314 11.3377 14.3467 11.4889C14.262 11.6402 14.1394 11.7669 13.991 11.8565C13.8425 11.9461 13.6734 11.9955 13.5 12Z" fill="white"/>
</g>
</g>
</g>
</g>
</svg>
