<svg width="26" height="26" viewBox="0 0 26 26" fill="none" xmlns="http://www.w3.org/2000/svg">
<g id="default / coffee">
<g id="POI-base">
<g id="Category_Master">
<g id="Baseshape_Pin">
<path id="shape" d="M9.12903 20.4794L9.12726 20.4777C6.78964 18.19 5.64527 16.3664 5.07698 14.8457C4.50986 13.3281 4.5 12.0735 4.5 10.8565C4.5 6.24879 8.30485 2.5 12.9913 2.5C17.6791 2.5 21.5 6.25003 21.5 10.8565C21.5 12.0735 21.4901 13.3281 20.923 14.8457C20.3547 16.3664 19.2104 18.19 16.8728 20.4777L16.8717 20.4787L12.992 24.2977L9.12903 20.4794Z" fill="#FFA857" stroke="#B37B50"/>
</g>
</g>
<g id="Icon_Master">
<g id="coffee">
<path id="Vector" d="M10.185 15H14.565C14.8185 15.0006 15.0628 14.9049 15.2485 14.7323C15.4341 14.5596 15.5473 14.3229 15.565 14.07L15.715 12H15.92C16.3907 12.0088 16.8502 11.8556 17.2215 11.5662C17.5929 11.2768 17.8535 10.8686 17.96 10.41C18.021 10.1187 18.0162 9.81741 17.946 9.52817C17.8758 9.23892 17.7419 8.969 17.5541 8.73808C17.3663 8.50717 17.1293 8.32108 16.8605 8.19339C16.5916 8.0657 16.2976 7.99963 16 8H8.75L9.185 14.065C9.20153 14.3188 9.31414 14.5567 9.49992 14.7304C9.68569 14.9041 9.93067 15.0005 10.185 15ZM16 9C16.1596 8.99931 16.317 9.03684 16.4592 9.10944C16.6013 9.18203 16.724 9.2876 16.817 9.4173C16.91 9.54701 16.9706 9.69708 16.9937 9.855C17.0169 10.0129 17.0019 10.1741 16.95 10.325C16.8755 10.5284 16.7387 10.7031 16.5592 10.8242C16.3796 10.9454 16.1665 11.0069 15.95 11H15.79L15.935 9H16ZM8 16H17.5L17.275 16.445C17.1922 16.6116 17.0646 16.7518 16.9065 16.8499C16.7484 16.9479 16.566 16.9999 16.38 17H9.12C8.93396 16.9999 8.75163 16.9479 8.59352 16.8499C8.43541 16.7518 8.30779 16.6116 8.225 16.445L8 16Z" fill="white"/>
</g>
</g>
</g>
</g>
</svg>
