<svg width="26" height="26" viewBox="0 0 26 26" fill="none" xmlns="http://www.w3.org/2000/svg">
<g id="default / first-aid">
<g id="POI-base">
<g id="Category_Master">
<g id="Baseshape_Pin">
<path id="shape" d="M9.12903 20.4794L9.12726 20.4777C6.78964 18.19 5.64527 16.3664 5.07698 14.8457C4.50986 13.3281 4.5 12.0735 4.5 10.8565C4.5 6.24879 8.30485 2.5 12.9913 2.5C17.6791 2.5 21.5 6.25003 21.5 10.8565C21.5 12.0735 21.4901 13.3281 20.923 14.8457C20.3547 16.3664 19.2104 18.19 16.8728 20.4777L16.8717 20.4787L12.992 24.2977L9.12903 20.4794Z" fill="#FC5A72" stroke="#B04462"/>
</g>
</g>
<g id="Icon_Master">
<g id="first-aid">
<path id="Vector" d="M17.5 7H8.5C8.36739 7 8.24021 7.05268 8.14645 7.14645C8.05268 7.24021 8 7.36739 8 7.5V16.5C8 16.6326 8.05268 16.7598 8.14645 16.8536C8.24021 16.9473 8.36739 17 8.5 17H17.5C17.6326 17 17.7598 16.9473 17.8536 16.8536C17.9473 16.7598 18 16.6326 18 16.5V7.5C18 7.36739 17.9473 7.24021 17.8536 7.14645C17.7598 7.05268 17.6326 7 17.5 7ZM17 13.5H14.5V16H11.5V13.5H9V10.5H11.5V8H14.5V10.5H17V13.5Z" fill="white"/>
</g>
</g>
</g>
</g>
</svg>
