<svg width="26" height="26" viewBox="0 0 26 26" fill="none" xmlns="http://www.w3.org/2000/svg">
<g id="default / frontier-crossing">
<g id="POI-base">
<g id="Category_Master">
<g id="Baseshape_Pin">
<path id="shape" d="M9.12903 20.4794L9.12726 20.4777C6.78964 18.19 5.64527 16.3664 5.07698 14.8457C4.50986 13.3281 4.5 12.0735 4.5 10.8565C4.5 6.24879 8.30485 2.5 12.9913 2.5C17.6791 2.5 21.5 6.25003 21.5 10.8565C21.5 12.0735 21.4901 13.3281 20.923 14.8457C20.3547 16.3664 19.2104 18.19 16.8728 20.4777L16.8717 20.4787L12.992 24.2977L9.12903 20.4794Z" fill="#C19D95" stroke="#87737B"/>
</g>
</g>
<g id="Icon_Master">
<g id="frontier-crossing">
<path id="Vector" d="M10.5 7V8.5L9 9V9.5H15V8.385C15.0019 8.14008 14.9139 7.90298 14.7526 7.71866C14.5913 7.53433 14.368 7.41561 14.125 7.385L10.5 7ZM17.295 15.815L17.47 17H13.025L16.145 14C16.4515 14.2068 16.7119 14.4748 16.9099 14.7872C17.1078 15.0996 17.2389 15.4495 17.295 15.815ZM11.17 17H8.5L8.675 15.815C8.78725 15.1587 9.13089 14.5644 9.64364 14.1397C10.1564 13.715 10.8043 13.4881 11.47 13.5H14.5C14.6004 13.5032 14.7005 13.5115 14.8 13.525L11.17 17ZM15 10.25V10.28C15 11.34 14.5 11.5 14.5 12.5H11.25C11.25 11.695 10.5 11.545 10.5 10.75V10.25H15Z" fill="white"/>
</g>
</g>
</g>
</g>
</svg>
