<svg width="26" height="26" viewBox="0 0 26 26" fill="none" xmlns="http://www.w3.org/2000/svg">
<g id="default / game-arcade">
<g id="POI-base">
<g id="Category_Master">
<g id="Baseshape_Pin">
<path id="shape" d="M9.12903 20.4794L9.12726 20.4777C6.78964 18.19 5.64527 16.3664 5.07698 14.8457C4.50986 13.3281 4.5 12.0735 4.5 10.8565C4.5 6.24879 8.30485 2.5 12.9913 2.5C17.6791 2.5 21.5 6.25003 21.5 10.8565C21.5 12.0735 21.4901 13.3281 20.923 14.8457C20.3547 16.3664 19.2104 18.19 16.8728 20.4777L16.8717 20.4787L12.992 24.2977L9.12903 20.4794Z" fill="#ED97C2" stroke="#A66F9A"/>
</g>
</g>
<g id="Icon_Master">
<g id="game-arcade">
<path id="Vector" d="M10 16H9V15H10V16ZM9 16H8V17H9V16ZM17 15H16V16H17V15ZM18 16H17V17H18V16ZM18 11.5V13H16V15H15V13H13.5V14H14V16H12V14H12.5V13H11V15H10V13H8V11.5H9V10H10V8.5H11V7H15V8.5H16V10H17V11.5H18ZM12 11.5V10H10.5V11.5H12ZM15.5 10H14V11.5H15.5V10Z" fill="white"/>
</g>
</g>
</g>
</g>
</svg>
