<svg width="26" height="26" viewBox="0 0 26 26" fill="none" xmlns="http://www.w3.org/2000/svg">
<g id="default / generic-point_emergency">
<g id="POI-base">
<g id="Category_Master">
<g id="Baseshape_Pin">
<path id="shape" d="M9.12903 20.4794L9.12726 20.4777C6.78964 18.19 5.64527 16.3664 5.07698 14.8457C4.50986 13.3281 4.5 12.0735 4.5 10.8565C4.5 6.24879 8.30485 2.5 12.9913 2.5C17.6791 2.5 21.5 6.25003 21.5 10.8565C21.5 12.0735 21.4901 13.3281 20.923 14.8457C20.3547 16.3664 19.2104 18.19 16.8728 20.4777L16.8717 20.4787L12.992 24.2977L9.12903 20.4794Z" fill="#FC5A72" stroke="#B04462"/>
</g>
</g>
<g id="Icon_Master">
<g id="generic-point">
<path id="Vector" d="M13 9.5C13.4945 9.5 13.9778 9.64662 14.3889 9.92133C14.8 10.196 15.1205 10.5865 15.3097 11.0433C15.4989 11.5001 15.5484 12.0028 15.452 12.4877C15.3555 12.9727 15.1174 13.4181 14.7678 13.7678C14.4181 14.1174 13.9727 14.3555 13.4877 14.452C13.0028 14.5484 12.5001 14.4989 12.0433 14.3097C11.5865 14.1205 11.196 13.8 10.9213 13.3889C10.6466 12.9778 10.5 12.4945 10.5 12C10.5 11.337 10.7634 10.7011 11.2322 10.2322C11.7011 9.76339 12.337 9.5 13 9.5Z" fill="white"/>
</g>
</g>
</g>
</g>
</svg>
