<svg width="26" height="26" viewBox="0 0 26 26" fill="none" xmlns="http://www.w3.org/2000/svg">
<g id="default / golf-course">
<g id="POI-base">
<g id="Category_Master">
<g id="Baseshape_Pin">
<path id="shape" d="M9.12903 20.4794L9.12726 20.4777C6.78964 18.19 5.64527 16.3664 5.07698 14.8457C4.50986 13.3281 4.5 12.0735 4.5 10.8565C4.5 6.24879 8.30485 2.5 12.9913 2.5C17.6791 2.5 21.5 6.25003 21.5 10.8565C21.5 12.0735 21.4901 13.3281 20.923 14.8457C20.3547 16.3664 19.2104 18.19 16.8728 20.4777L16.8717 20.4787L12.992 24.2977L9.12903 20.4794Z" fill="#45BF94" stroke="#308C7A"/>
</g>
</g>
<g id="Icon_Master">
<g id="golf-course">
<path id="Vector" d="M15 13.25C15 12.9533 15.088 12.6633 15.2528 12.4166C15.4176 12.17 15.6519 11.9777 15.926 11.8642C16.2001 11.7506 16.5017 11.7209 16.7926 11.7788C17.0836 11.8367 17.3509 11.9796 17.5607 12.1893C17.7704 12.3991 17.9133 12.6664 17.9712 12.9574C18.0291 13.2483 17.9994 13.5499 17.8858 13.824C17.7723 14.0981 17.58 14.3324 17.3334 14.4972C17.0867 14.662 16.7967 14.75 16.5 14.75C16.1022 14.75 15.7206 14.592 15.4393 14.3107C15.158 14.0294 15 13.6478 15 13.25ZM18 15.5H10.5V11.1L14.5 9L9.5 7V15.5H8V16.5H18V15.5Z" fill="white"/>
</g>
</g>
</g>
</g>
</svg>
