<svg width="26" height="26" viewBox="0 0 26 26" fill="none" xmlns="http://www.w3.org/2000/svg">
<g id="default / hotel">
<g id="POI-base">
<g id="Category_Master">
<g id="Baseshape_Pin">
<path id="shape" d="M9.12903 20.4794L9.12726 20.4777C6.78964 18.19 5.64527 16.3664 5.07698 14.8457C4.50986 13.3281 4.5 12.0735 4.5 10.8565C4.5 6.24879 8.30485 2.5 12.9913 2.5C17.6791 2.5 21.5 6.25003 21.5 10.8565C21.5 12.0735 21.4901 13.3281 20.923 14.8457C20.3547 16.3664 19.2104 18.19 16.8728 20.4777L16.8717 20.4787L12.992 24.2977L9.12903 20.4794Z" fill="#5A7FCE" stroke="#3E5EA2"/>
</g>
</g>
<g id="Icon_Master">
<g id="hotel">
<path id="Vector" d="M17 13H13.5V11H16C16.2652 11 16.5196 11.1054 16.7071 11.2929C16.8946 11.4804 17 11.7348 17 12V13ZM10.5 13V12C10.5 11.7348 10.6054 11.4804 10.7929 11.2929C10.9804 11.1054 11.2348 11 11.5 11C11.7652 11 12.0196 11.1054 12.2071 11.2929C12.3946 11.4804 12.5 11.7348 12.5 12V13H10.5ZM17.5 14.375C17.4987 14.2759 17.4588 14.1813 17.3887 14.1113C17.3187 14.0412 17.2241 14.0013 17.125 14H9.5V11H8.5V17H9.5V16H16.5V17H17.5V14.375ZM18 10.21L13 8.42L8 10.21V8.78L13 7L18 8.78V10.21Z" fill="white"/>
</g>
</g>
</g>
</g>
</svg>
