<svg width="26" height="26" viewBox="0 0 26 26" fill="none" xmlns="http://www.w3.org/2000/svg">
<g id="default / inclined">
<g id="POI-base">
<g id="Category_Master">
<g id="Baseshape_Dot">
<path id="Outline Outside" d="M4.5 12C4.5 7.30558 8.30558 3.5 13 3.5C17.6944 3.5 21.5 7.30558 21.5 12C21.5 16.6944 17.6944 20.5 13 20.5C8.30558 20.5 4.5 16.6944 4.5 12Z" fill="#6BC9FF" stroke="#4A91C5"/>
</g>
</g>
<g id="Icon_Master">
<g id="inclined">
<path id="Vector" d="M16.755 6.99997C16.6556 6.99927 16.5565 7.01103 16.46 7.03497L9.655 8.64497C9.32618 8.72268 9.03323 8.90913 8.8236 9.17411C8.61398 9.4391 8.49995 9.76709 8.5 10.105V15L18 12.75V8.24997C18 7.91931 17.869 7.60213 17.6357 7.36785C17.4023 7.13357 17.0857 7.00129 16.755 6.99997ZM12.875 11.5L9.5 12.29V10.16C9.50076 10.0169 9.55095 9.87854 9.64208 9.76828C9.73321 9.65801 9.85966 9.58265 10 9.55497L12.895 8.86497L12.875 11.5ZM17 10.5L13.625 11.305V8.68497L16.54 7.99997H16.63C16.7286 8.00128 16.8227 8.04137 16.8919 8.11156C16.9612 8.18174 17 8.27637 17 8.37497V10.5ZM8 16.94L18 14.57V13.82L8 16.19V16.94Z" fill="white"/>
</g>
</g>
</g>
</g>
</svg>
