<svg width="26" height="26" viewBox="0 0 26 26" fill="none" xmlns="http://www.w3.org/2000/svg">
<g id="default / metro">
<g id="POI-base">
<g id="Category_Master">
<g id="Baseshape_Dot">
<path id="Outline Outside" d="M4.5 12C4.5 7.30558 8.30558 3.5 13 3.5C17.6944 3.5 21.5 7.30558 21.5 12C21.5 16.6944 17.6944 20.5 13 20.5C8.30558 20.5 4.5 16.6944 4.5 12Z" fill="#6BC9FF" stroke="#4A91C5"/>
</g>
</g>
<g id="Icon_Master">
<g id="metro">
<path id="Vector" d="M13 9.885C12.325 9.885 11.25 10.06 11.25 11.25V12.165H14.75V11.25C14.75 10.06 13.68 9.885 13 9.885ZM12.61 15.25L11.5 17H14.5L13.37 15.25H12.61ZM14.5 14.5C14.6658 14.5 14.8247 14.4342 14.9419 14.3169C15.0592 14.1997 15.125 14.0408 15.125 13.875C15.125 13.7092 15.0592 13.5503 14.9419 13.4331C14.8247 13.3158 14.6658 13.25 14.5 13.25C14.3342 13.25 14.1753 13.3158 14.0581 13.4331C13.9408 13.5503 13.875 13.7092 13.875 13.875C13.875 14.0408 13.9408 14.1997 14.0581 14.3169C14.1753 14.4342 14.3342 14.5 14.5 14.5ZM11.5 14.5C11.5821 14.5 11.6633 14.4838 11.7392 14.4524C11.815 14.421 11.8839 14.375 11.9419 14.3169C12 14.2589 12.046 14.19 12.0774 14.1142C12.1088 14.0383 12.125 13.9571 12.125 13.875C12.125 13.7929 12.1088 13.7117 12.0774 13.6358C12.046 13.56 12 13.4911 11.9419 13.4331C11.8839 13.375 11.815 13.329 11.7392 13.2976C11.6633 13.2662 11.5821 13.25 11.5 13.25C11.3342 13.25 11.1753 13.3158 11.0581 13.4331C10.9408 13.5503 10.875 13.7092 10.875 13.875C10.875 14.0408 10.9408 14.1997 11.0581 14.3169C11.1753 14.4342 11.3342 14.5 11.5 14.5ZM13 7C9.825 7 8 8.54 8 11.23V17H10L11.295 15.25H10.5C10.3674 15.25 10.2402 15.1973 10.1464 15.1036C10.0527 15.0098 10 14.8826 10 14.75V11.185C10 9.685 11.15 8.75 13 8.75C14.85 8.75 16 9.68 16 11.185V14.75C16 14.8826 15.9473 15.0098 15.8536 15.1036C15.7598 15.1973 15.6326 15.25 15.5 15.25H14.675L16 17H18V11.23C18 8.54 16.175 7 13 7Z" fill="white"/>
</g>
</g>
</g>
</g>
</svg>
