<svg width="26" height="26" viewBox="0 0 26 26" fill="none" xmlns="http://www.w3.org/2000/svg">
<g id="default / mountain-pass">
<g id="POI-base">
<g id="Category_Master">
<g id="Baseshape_Pin">
<path id="shape" d="M9.12903 20.4794L9.12726 20.4777C6.78964 18.19 5.64527 16.3664 5.07698 14.8457C4.50986 13.3281 4.5 12.0735 4.5 10.8565C4.5 6.24879 8.30485 2.5 12.9913 2.5C17.6791 2.5 21.5 6.25003 21.5 10.8565C21.5 12.0735 21.4901 13.3281 20.923 14.8457C20.3547 16.3664 19.2104 18.19 16.8728 20.4777L16.8717 20.4787L12.992 24.2977L9.12903 20.4794Z" fill="#359C7B" stroke="#267369"/>
</g>
</g>
<g id="Icon_Master">
<g id="mountain-pass">
<path id="Vector" d="M15 8L13.44 8.5L12 7L8 12.44V17H9.955L11.83 15.53C11.8998 15.4793 11.9572 15.4135 11.9978 15.3375C12.0385 15.2614 12.0613 15.1772 12.0647 15.091C12.0681 15.0048 12.0519 14.919 12.0173 14.84C11.9827 14.7611 11.9306 14.6909 11.865 14.635L10.82 13.7C10.71 13.6187 10.6199 13.5135 10.5567 13.3922C10.4934 13.2709 10.4586 13.1367 10.455 13C10.4806 12.7306 10.6043 12.48 10.8024 12.2957C11.0006 12.1113 11.2594 12.0061 11.53 12L13.935 11.72L14.235 12.045L12.075 12.495C11.9851 12.5058 11.9015 12.5468 11.8379 12.6113C11.7744 12.6758 11.7345 12.7599 11.725 12.85C11.7293 12.923 11.7555 12.993 11.8001 13.0509C11.8446 13.1089 11.9056 13.1521 11.975 13.175L14.44 14.205C14.7402 14.3092 15.0031 14.4994 15.196 14.7519C15.3889 15.0043 15.5033 15.308 15.525 15.625C15.525 15.65 15.415 16.49 15.355 16.98H18V12.5L15 8ZM12.1 8.55L12.715 9.19L13.15 9.64L13.74 9.45L14.585 9.18L15.465 10.5H10.665L12.1 8.55Z" fill="white"/>
</g>
</g>
</g>
</g>
</svg>
