<svg width="26" height="26" viewBox="0 0 26 26" fill="none" xmlns="http://www.w3.org/2000/svg">
<g id="default / nature">
<g id="POI-base">
<g id="Category_Master">
<g id="Baseshape_Pin">
<path id="shape" d="M9.12903 20.4794L9.12726 20.4777C6.78964 18.19 5.64527 16.3664 5.07698 14.8457C4.50986 13.3281 4.5 12.0735 4.5 10.8565C4.5 6.24879 8.30485 2.5 12.9913 2.5C17.6791 2.5 21.5 6.25003 21.5 10.8565C21.5 12.0735 21.4901 13.3281 20.923 14.8457C20.3547 16.3664 19.2104 18.19 16.8728 20.4777L16.8717 20.4787L12.992 24.2977L9.12903 20.4794Z" fill="#45BF94" stroke="#308C7A"/>
</g>
</g>
<g id="Icon_Master">
<g id="nature">
<path id="Vector" d="M12.045 15.03L10.38 17L9.47 16.09L11.44 14.425C11.1721 13.8259 11.0866 13.1612 11.1942 12.5139C11.3018 11.8665 11.5977 11.2652 12.045 10.785C13.635 9.195 17.5 8.97 17.5 8.97C17.5 8.97 17.27 12.835 15.68 14.425C15.2002 14.8713 14.5998 15.1666 13.9535 15.2742C13.3071 15.3817 12.6434 15.2968 12.045 15.03ZM9.925 14.58L10.425 14.14C10.2306 13.4501 10.2206 12.7213 10.3961 12.0264C10.5715 11.3315 10.9263 10.6948 11.425 10.18C11.795 9.82176 12.2183 9.5232 12.68 9.295C12.215 8.48213 11.6761 7.71388 11.07 7C11.07 7 8.5 9.895 8.5 12.145C8.51154 12.6384 8.64839 13.1208 8.89767 13.5467C9.14695 13.9727 9.50047 14.3283 9.925 14.58Z" fill="white"/>
</g>
</g>
</g>
</g>
</svg>
