<svg width="26" height="26" viewBox="0 0 26 26" fill="none" xmlns="http://www.w3.org/2000/svg">
<g id="default / night-club">
<g id="POI-base">
<g id="Category_Master">
<g id="Baseshape_Pin">
<path id="shape" d="M9.12903 20.4794L9.12726 20.4777C6.78964 18.19 5.64527 16.3664 5.07698 14.8457C4.50986 13.3281 4.5 12.0735 4.5 10.8565C4.5 6.24879 8.30485 2.5 12.9913 2.5C17.6791 2.5 21.5 6.25003 21.5 10.8565C21.5 12.0735 21.4901 13.3281 20.923 14.8457C20.3547 16.3664 19.2104 18.19 16.8728 20.4777L16.8717 20.4787L12.992 24.2977L9.12903 20.4794Z" fill="#ED97C2" stroke="#A66F9A"/>
</g>
</g>
<g id="Icon_Master">
<g id="night-club">
<path id="Vector" d="M12.5 11.5C12.5 11.6483 12.456 11.7933 12.3736 11.9167C12.2912 12.04 12.1741 12.1361 12.037 12.1929C11.9 12.2497 11.7492 12.2645 11.6037 12.2356C11.4582 12.2067 11.3246 12.1352 11.2197 12.0303C11.1148 11.9254 11.0434 11.7918 11.0144 11.6463C10.9855 11.5008 11.0003 11.35 11.0571 11.213C11.1139 11.0759 11.21 10.9588 11.3333 10.8764C11.4567 10.794 11.6017 10.75 11.75 10.75C11.9489 10.75 12.1397 10.829 12.2803 10.9697C12.421 11.1103 12.5 11.3011 12.5 11.5ZM11 15.18C10.333 15.0474 9.71456 14.7362 9.21064 14.2796C8.70672 13.823 8.33626 13.2381 8.13882 12.5873C7.94137 11.9366 7.92434 11.2444 8.08955 10.5848C8.25476 9.92513 8.59601 9.32272 9.07686 8.84186C9.55772 8.36101 10.1601 8.01976 10.8198 7.85455C11.4794 7.68934 12.1716 7.70637 12.8223 7.90381C13.4731 8.10126 14.058 8.47172 14.5146 8.97564C14.9712 9.47955 15.2824 10.098 15.415 10.765C15.5393 11.3712 15.5112 11.9987 15.3334 12.5913C15.1555 13.184 14.8333 13.7233 14.3958 14.1608C13.9583 14.5983 13.419 14.9205 12.8263 15.0984C12.2337 15.2762 11.6062 15.3043 11 15.18ZM11.275 9.81C10.9869 9.88649 10.7236 10.0363 10.5107 10.2449C10.2977 10.4534 10.1425 10.7136 10.06 11C9.97591 11.2997 9.97302 11.6163 10.0516 11.9174C10.1302 12.2186 10.2875 12.4934 10.5073 12.7137C10.7271 12.934 11.0016 13.092 11.3026 13.1713C11.6035 13.2506 11.9202 13.2484 12.22 13.165C12.5045 13.0904 12.765 12.9442 12.9769 12.7402C13.1887 12.5363 13.3447 12.2814 13.43 12C13.5194 11.6993 13.5265 11.3801 13.4506 11.0757C13.3747 10.7713 13.2187 10.4928 12.9986 10.2692C12.7786 10.0456 12.5026 9.88506 12.1995 9.8043C11.8964 9.72354 11.5771 9.72551 11.275 9.81ZM16 7V9H16.5V12.78C16.4994 13.0127 16.4446 13.2421 16.34 13.45L15.805 14.525L15.58 14.415L14.76 16.05L14.985 16.16L15.88 16.61L16.105 16.72L16.92 15.085L16.695 15L17.235 13.92C17.4123 13.5663 17.5031 13.1756 17.5 12.78V9H18V7H16Z" fill="white"/>
</g>
</g>
</g>
</g>
</svg>
