<svg width="26" height="26" viewBox="0 0 26 26" fill="none" xmlns="http://www.w3.org/2000/svg">
<g id="default / parking-garage">
<g id="POI-base">
<g id="Category_Master">
<g id="Baseshape_Pin">
<path id="shape" d="M9.12903 20.4794L9.12726 20.4777C6.78964 18.19 5.64527 16.3664 5.07698 14.8457C4.50986 13.3281 4.5 12.0735 4.5 10.8565C4.5 6.24879 8.30485 2.5 12.9913 2.5C17.6791 2.5 21.5 6.25003 21.5 10.8565C21.5 12.0735 21.4901 13.3281 20.923 14.8457C20.3547 16.3664 19.2104 18.19 16.8728 20.4777L16.8717 20.4787L12.992 24.2977L9.12903 20.4794Z" fill="#4E91E9" stroke="#386CB6"/>
</g>
</g>
<g id="Icon_Master">
<g id="parking-garage">
<path id="Vector" d="M18 10.21L13 8.42L8 10.21V8.78L13 7L18 8.78V10.21ZM15.68 12.785C15.68 14.41 14.53 15.165 12.915 15.165H12.155V17H10.5V10.5H12.765C14.57 10.5 15.68 11.25 15.68 12.785ZM13.975 12.785C13.975 12.035 13.56 11.68 12.74 11.68H12.155V14H12.775C12.9419 14.0321 13.1141 14.0229 13.2767 13.9734C13.4393 13.9239 13.5874 13.8354 13.7081 13.7157C13.8288 13.596 13.9184 13.4487 13.9693 13.2865C14.0202 13.1243 14.0307 12.9522 14 12.785H13.975Z" fill="white"/>
</g>
</g>
</g>
</g>
</svg>
