<svg width="26" height="26" viewBox="0 0 26 26" fill="none" xmlns="http://www.w3.org/2000/svg">
<g id="default / post">
<g id="POI-base">
<g id="Category_Master">
<g id="Baseshape_Pin">
<path id="shape" d="M9.12903 20.4794L9.12726 20.4777C6.78964 18.19 5.64527 16.3664 5.07698 14.8457C4.50986 13.3281 4.5 12.0735 4.5 10.8565C4.5 6.24879 8.30485 2.5 12.9913 2.5C17.6791 2.5 21.5 6.25003 21.5 10.8565C21.5 12.0735 21.4901 13.3281 20.923 14.8457C20.3547 16.3664 19.2104 18.19 16.8728 20.4777L16.8717 20.4787L12.992 24.2977L9.12903 20.4794Z" fill="#A0B1DA" stroke="#7182AB"/>
</g>
</g>
<g id="Icon_Master">
<g id="post">
<path id="Vector" d="M8.00003 9.5V9H18V9.5C17.9982 9.58196 17.9763 9.66222 17.9362 9.73372C17.8961 9.80521 17.839 9.86575 17.77 9.91L13.27 12.72C13.194 12.7639 13.1078 12.787 13.02 12.787C12.9323 12.787 12.846 12.7639 12.77 12.72L8.27003 9.91C8.19357 9.87065 8.12854 9.81224 8.08125 9.74042C8.03395 9.6686 8.00598 9.58579 8.00003 9.5ZM18 10.75L13.545 13.645C13.3828 13.7504 13.1935 13.8066 13 13.8066C12.8066 13.8066 12.6172 13.7504 12.455 13.645L8.00003 10.75V15.07C7.99936 15.1267 8.01002 15.1829 8.0314 15.2353C8.05277 15.2878 8.08442 15.3355 8.12448 15.3756C8.16454 15.4156 8.21221 15.4473 8.26469 15.4686C8.31716 15.49 8.37338 15.5007 8.43003 15.5H17.57C17.6267 15.5007 17.6829 15.49 17.7354 15.4686C17.7878 15.4473 17.8355 15.4156 17.8756 15.3756C17.9156 15.3355 17.9473 15.2878 17.9687 15.2353C17.99 15.1829 18.0007 15.1267 18 15.07V10.75Z" fill="white"/>
</g>
</g>
</g>
</g>
</svg>
