<svg width="26" height="26" viewBox="0 0 26 26" fill="none" xmlns="http://www.w3.org/2000/svg">
<g id="default / pub">
<g id="POI-base">
<g id="Category_Master">
<g id="Baseshape_Pin">
<path id="shape" d="M9.12903 20.4794L9.12726 20.4777C6.78964 18.19 5.64527 16.3664 5.07698 14.8457C4.50986 13.3281 4.5 12.0735 4.5 10.8565C4.5 6.24879 8.30485 2.5 12.9913 2.5C17.6791 2.5 21.5 6.25003 21.5 10.8565C21.5 12.0735 21.4901 13.3281 20.923 14.8457C20.3547 16.3664 19.2104 18.19 16.8728 20.4777L16.8717 20.4787L12.992 24.2977L9.12903 20.4794Z" fill="#ED97C2" stroke="#A66F9A"/>
</g>
</g>
<g id="Icon_Master">
<g id="pub">
<path id="Vector" d="M17.0549 11H8.99993V16L8.74993 17H16.2499L15.9999 16V15.5L17.1949 15.31C17.4251 15.2643 17.6319 15.1391 17.7791 14.9563C17.9262 14.7734 18.0044 14.5447 17.9999 14.31V12C18.0003 11.7441 17.9025 11.4977 17.7267 11.3117C17.5509 11.1256 17.3105 11.0141 17.0549 11ZM11.9999 15.5H10.9999V12H11.9999V15.5ZM13.9999 15.5H12.9999V12H13.9999V15.5ZM16.9999 14.095C16.9999 14.1527 16.98 14.2085 16.9436 14.2532C16.9071 14.2978 16.8564 14.3285 16.7999 14.34L15.9999 14.5V12H16.7499C16.8162 12 16.8798 12.0264 16.9267 12.0733C16.9736 12.1201 16.9999 12.1837 16.9999 12.25V14.095ZM9.54493 10H8.54493C8.53971 9.91678 8.53971 9.83328 8.54493 9.75003C8.54477 9.2936 8.72296 8.85516 9.04148 8.52824C9.36 8.20131 9.79364 8.01177 10.2499 8.00003H10.7499C10.9264 7.69928 11.1784 7.44989 11.481 7.2766C11.7836 7.10331 12.1262 7.01215 12.4749 7.01215C12.8236 7.01215 13.1663 7.10331 13.4689 7.2766C13.7714 7.44989 14.0235 7.69928 14.1999 8.00003H14.7499C15.2141 8.00003 15.6592 8.18441 15.9874 8.5126C16.3156 8.84078 16.4999 9.2859 16.4999 9.75003C16.5051 9.83328 16.5051 9.91678 16.4999 10H15.4999C15.515 9.91738 15.515 9.83268 15.4999 9.75003C15.4999 9.55112 15.4209 9.36035 15.2803 9.2197C15.1396 9.07905 14.9488 9.00003 14.7499 9.00003H13.4999C13.4999 8.73482 13.3946 8.48046 13.207 8.29293C13.0195 8.10539 12.7651 8.00003 12.4999 8.00003C12.2347 8.00003 11.9804 8.10539 11.7928 8.29293C11.6053 8.48046 11.4999 8.73482 11.4999 9.00003H10.2499C10.051 9.00003 9.86025 9.07905 9.7196 9.2197C9.57894 9.36035 9.49993 9.55112 9.49993 9.75003C9.50185 9.8352 9.51703 9.91954 9.54493 10Z" fill="white"/>
</g>
</g>
</g>
</g>
</svg>
