<svg width="26" height="26" viewBox="0 0 26 26" fill="none" xmlns="http://www.w3.org/2000/svg">
<g id="default / rail-regional">
<g id="POI-base">
<g id="Category_Master">
<g id="Baseshape_Dot">
<path id="Outline Outside" d="M4.5 12C4.5 7.30558 8.30558 3.5 13 3.5C17.6944 3.5 21.5 7.30558 21.5 12C21.5 16.6944 17.6944 20.5 13 20.5C8.30558 20.5 4.5 16.6944 4.5 12Z" fill="#6BC9FF" stroke="#4A91C5"/>
</g>
</g>
<g id="Icon_Master">
<g id="rail-regional">
<path id="Vector" d="M17 7.75C17 7.55109 16.921 7.36032 16.7803 7.21967C16.6397 7.07902 16.4489 7 16.25 7H9.75C9.55109 7 9.36032 7.07902 9.21967 7.21967C9.07902 7.36032 9 7.55109 9 7.75V14.5H11L8.5 17H10L12.25 14.5H13.75L16 17H17.5L15 14.5H17V7.75ZM10 8H12.5V11.5H10V8ZM10.75 13.75C10.5511 13.75 10.3603 13.671 10.2197 13.5303C10.079 13.3897 10 13.1989 10 13C10 12.8011 10.079 12.6103 10.2197 12.4697C10.3603 12.329 10.5511 12.25 10.75 12.25C10.9489 12.25 11.1397 12.329 11.2803 12.4697C11.421 12.6103 11.5 12.8011 11.5 13C11.5 13.1989 11.421 13.3897 11.2803 13.5303C11.1397 13.671 10.9489 13.75 10.75 13.75ZM16 13C16 13.1989 15.921 13.3897 15.7803 13.5303C15.6397 13.671 15.4489 13.75 15.25 13.75C15.0511 13.75 14.8603 13.671 14.7197 13.5303C14.579 13.3897 14.5 13.1989 14.5 13C14.5 12.8011 14.579 12.6103 14.7197 12.4697C14.8603 12.329 15.0511 12.25 15.25 12.25C15.4489 12.25 15.6397 12.329 15.7803 12.4697C15.921 12.6103 16 12.8011 16 13ZM16 11.5H13.5V8H16V11.5Z" fill="white"/>
</g>
</g>
</g>
</g>
</svg>
