<svg width="26" height="26" viewBox="0 0 26 26" fill="none" xmlns="http://www.w3.org/2000/svg">
<g id="default / religious-place">
<g id="POI-base">
<g id="Category_Master">
<g id="Baseshape_Pin">
<path id="shape" d="M9.12903 20.4794L9.12726 20.4777C6.78964 18.19 5.64527 16.3664 5.07698 14.8457C4.50986 13.3281 4.5 12.0735 4.5 10.8565C4.5 6.24879 8.30485 2.5 12.9913 2.5C17.6791 2.5 21.5 6.25003 21.5 10.8565C21.5 12.0735 21.4901 13.3281 20.923 14.8457C20.3547 16.3664 19.2104 18.19 16.8728 20.4777L16.8717 20.4787L12.992 24.2977L9.12903 20.4794Z" fill="#C19D95" stroke="#87737B"/>
</g>
</g>
<g id="Icon_Master">
<g id="religious-place">
<path id="Vector" d="M16 7L14 12V15.5H12.5V11.5H8.49996V17H18V12L16 7ZM9.99996 15.5V12.5C10.0582 12.4224 10.1337 12.3594 10.2205 12.316C10.3072 12.2726 10.4029 12.25 10.5 12.25C10.597 12.25 10.6927 12.2726 10.7795 12.316C10.8663 12.3594 10.9417 12.4224 11 12.5V15.5H9.99996ZM15.5 15.5V12.5C15.5582 12.4224 15.6337 12.3594 15.7205 12.316C15.8072 12.2726 15.9029 12.25 16 12.25C16.097 12.25 16.1927 12.2726 16.2795 12.316C16.3663 12.3594 16.4417 12.4224 16.5 12.5V15.5H15.5ZM13 9.5C13.0054 9.69496 12.9625 9.88823 12.8753 10.0627C12.7881 10.2371 12.6592 10.3873 12.5 10.5H8.49996C8.34077 10.3873 8.21184 10.2371 8.12462 10.0627C8.03739 9.88823 7.99458 9.69496 7.99996 9.5C7.99996 8.5 10.5 7 10.5 7C10.5 7 13 8.5 13 9.5Z" fill="white"/>
</g>
</g>
</g>
</g>
</svg>
