<svg width="26" height="26" viewBox="0 0 26 26" fill="none" xmlns="http://www.w3.org/2000/svg">
<g id="default / restaurant">
<g id="POI-base">
<g id="Category_Master">
<g id="Baseshape_Pin">
<path id="shape" d="M9.12903 20.4794L9.12726 20.4777C6.78964 18.19 5.64527 16.3664 5.07698 14.8457C4.50986 13.3281 4.5 12.0735 4.5 10.8565C4.5 6.24879 8.30485 2.5 12.9913 2.5C17.6791 2.5 21.5 6.25003 21.5 10.8565C21.5 12.0735 21.4901 13.3281 20.923 14.8457C20.3547 16.3664 19.2104 18.19 16.8728 20.4777L16.8717 20.4787L12.992 24.2977L9.12903 20.4794Z" fill="#FFA857" stroke="#B37B50"/>
</g>
</g>
<g id="Icon_Master">
<g id="restaurant">
<path id="Vector" d="M17 7V17H15.5V13H14.5V10.5C14.5 8 17 7 17 7ZM12 7V9.5H11.25V7H10.25V9.5H9.5V7H8.5V9.655C8.50012 10.0381 8.64682 10.4066 8.91 10.685L9.85 11.5C9.89908 11.5481 9.93773 11.6057 9.96353 11.6694C9.98934 11.733 10.0018 11.8013 10 11.87V17H11.5V11.87C11.4989 11.801 11.5121 11.7325 11.5388 11.6688C11.5654 11.6051 11.605 11.5476 11.655 11.5L12.56 10.725C12.8414 10.444 12.9997 10.0627 13 9.665V7H12Z" fill="white"/>
</g>
</g>
</g>
</g>
</svg>
