<svg width="26" height="26" viewBox="0 0 26 26" fill="none" xmlns="http://www.w3.org/2000/svg">
<g id="default / shopping">
<g id="POI-base">
<g id="Category_Master">
<g id="Baseshape_Pin">
<path id="shape" d="M9.12903 20.4794L9.12726 20.4777C6.78964 18.19 5.64527 16.3664 5.07698 14.8457C4.50986 13.3281 4.5 12.0735 4.5 10.8565C4.5 6.24879 8.30485 2.5 12.9913 2.5C17.6791 2.5 21.5 6.25003 21.5 10.8565C21.5 12.0735 21.4901 13.3281 20.923 14.8457C20.3547 16.3664 19.2104 18.19 16.8728 20.4777L16.8717 20.4787L12.992 24.2977L9.12903 20.4794Z" fill="#E265A7" stroke="#9E4C88"/>
</g>
</g>
<g id="Icon_Master">
<g id="shopping">
<path id="Vector" d="M15.5 10L15.35 9C15.3131 8.59486 15.1278 8.21764 14.8297 7.94078C14.5317 7.66393 14.1418 7.50695 13.735 7.5H12.265C11.8583 7.50695 11.4684 7.66393 11.1703 7.94078C10.8723 8.21764 10.687 8.59486 10.65 9L10.525 10H8.66504L8.95004 15.55C8.96288 15.8065 9.07388 16.0481 9.26004 16.225C9.4462 16.4019 9.69326 16.5003 9.95004 16.5H16.05C16.3068 16.5003 16.5539 16.4019 16.74 16.225C16.9262 16.0481 17.0372 15.8065 17.05 15.55L17.335 10H15.5ZM11.64 9.1C11.6533 8.94104 11.7241 8.79237 11.8392 8.6819C11.9542 8.57143 12.1057 8.50675 12.265 8.5H13.735C13.8944 8.50675 14.0458 8.57143 14.1609 8.6819C14.276 8.79237 14.3468 8.94104 14.36 9.1L14.445 9.95C14.452 10.0197 14.4443 10.0902 14.4223 10.1567C14.4004 10.2233 14.3647 10.2845 14.3175 10.3363C14.2704 10.3882 14.2128 10.4296 14.1487 10.4578C14.0845 10.486 14.0151 10.5004 13.945 10.5H12.055C11.985 10.5004 11.9156 10.486 11.8514 10.4578C11.7872 10.4296 11.7297 10.3882 11.6826 10.3363C11.6354 10.2845 11.5997 10.2233 11.5777 10.1567C11.5558 10.0902 11.548 10.0197 11.555 9.95L11.64 9.1Z" fill="white"/>
</g>
</g>
</g>
</g>
</svg>
