<svg width="26" height="26" viewBox="0 0 26 26" fill="none" xmlns="http://www.w3.org/2000/svg">
<g id="default / stadium">
<g id="POI-base">
<g id="Category_Master">
<g id="Baseshape_Pin">
<path id="shape" d="M9.12903 20.4794L9.12726 20.4777C6.78964 18.19 5.64527 16.3664 5.07698 14.8457C4.50986 13.3281 4.5 12.0735 4.5 10.8565C4.5 6.24879 8.30485 2.5 12.9913 2.5C17.6791 2.5 21.5 6.25003 21.5 10.8565C21.5 12.0735 21.4901 13.3281 20.923 14.8457C20.3547 16.3664 19.2104 18.19 16.8728 20.4777L16.8717 20.4787L12.992 24.2977L9.12903 20.4794Z" fill="#C19D95" stroke="#87737B"/>
</g>
</g>
<g id="Icon_Master">
<g id="stadium">
<path id="Vector" d="M14 17V15.75C14.001 15.6211 13.9753 15.4934 13.9247 15.375C13.874 15.2565 13.7993 15.1497 13.7054 15.0615C13.6115 14.9732 13.5004 14.9053 13.379 14.862C13.2576 14.8187 13.1286 14.801 13 14.81C12.8714 14.801 12.7424 14.8187 12.621 14.862C12.4996 14.9053 12.3885 14.9732 12.2946 15.0615C12.2007 15.1497 12.126 15.2565 12.0753 15.375C12.0247 15.4934 11.999 15.6211 12 15.75V17H9.685C9.29901 17.0004 8.92772 16.852 8.64834 16.5857C8.36896 16.3194 8.20301 15.9556 8.185 15.57L8 11.57L10.25 13.665C10.5047 13.8866 10.8325 14.0059 11.17 14H14.67C15.0109 13.9991 15.339 13.8707 15.59 13.64L18 11.545L17.815 15.57C17.797 15.9556 17.631 16.3194 17.3517 16.5857C17.0723 16.852 16.701 17.0004 16.315 17H14ZM10.925 12.905C10.9925 12.9652 11.0795 12.9989 11.17 13H14.67C14.7606 12.9998 14.848 12.966 14.915 12.905L15.915 12.02H9.915L10.925 12.905ZM18 7.45L16 7V10H13V8.15L14 7.86V7.43L12 7V10H9V8.155L10 7.86V7.43L8 7V10.18L8.88 11H17.1L18 10.225V10H17V8.175L18 7.88V7.45Z" fill="white"/>
</g>
</g>
</g>
</g>
</svg>
