<svg width="26" height="26" viewBox="0 0 26 26" fill="none" xmlns="http://www.w3.org/2000/svg">
<g id="default / swimming">
<g id="POI-base">
<g id="Category_Master">
<g id="Baseshape_Pin">
<path id="shape" d="M9.12903 20.4794L9.12726 20.4777C6.78964 18.19 5.64527 16.3664 5.07698 14.8457C4.50986 13.3281 4.5 12.0735 4.5 10.8565C4.5 6.24879 8.30485 2.5 12.9913 2.5C17.6791 2.5 21.5 6.25003 21.5 10.8565C21.5 12.0735 21.4901 13.3281 20.923 14.8457C20.3547 16.3664 19.2104 18.19 16.8728 20.4777L16.8717 20.4787L12.992 24.2977L9.12903 20.4794Z" fill="#C19D95" stroke="#87737B"/>
</g>
</g>
<g id="Icon_Master">
<g id="swimming">
<path id="Vector" d="M14.4 8L10.575 14.115C10.9455 13.9996 11.332 13.944 11.72 13.95C12.3293 13.9392 12.932 14.0783 13.475 14.355C13.7168 14.4924 13.992 14.56 14.27 14.55C14.5496 14.5609 14.8267 14.4934 15.07 14.355C15.613 14.0783 16.2157 13.9392 16.825 13.95C16.98 13.95 17.12 13.95 17.255 13.95L14.725 11.225C14.6581 11.153 14.6139 11.063 14.5979 10.9661C14.5819 10.8691 14.5948 10.7696 14.635 10.68L15.66 8.395C15.7251 8.24356 15.7518 8.07836 15.7376 7.91412C15.7235 7.74987 15.669 7.59168 15.5789 7.4536C15.4888 7.31553 15.366 7.20187 15.2214 7.12273C15.0768 7.04359 14.9148 7.00143 14.75 7H10.555L10.91 8H14.4ZM16.825 15.4C16.3263 15.3906 15.833 15.5058 15.39 15.735C15.0465 15.9203 14.6601 16.0117 14.27 16C13.8815 16.011 13.497 15.9196 13.155 15.735C12.712 15.5058 12.2187 15.3906 11.72 15.4C11.2227 15.3895 10.7309 15.5048 10.29 15.735C9.94802 15.9196 9.56348 16.011 9.175 16C8.78638 16.0124 8.40147 15.921 8.06 15.735H8V16.805C8.37336 16.9528 8.77393 17.0192 9.175 17C9.67375 17.0094 10.167 16.8942 10.61 16.665C10.9499 16.4797 11.333 16.3882 11.72 16.4C12.1086 16.3876 12.4935 16.479 12.835 16.665C13.278 16.8942 13.7713 17.0094 14.27 17C14.7687 17.0094 15.262 16.8942 15.705 16.665C16.0485 16.4797 16.4349 16.3883 16.825 16.4C17.2136 16.3876 17.5985 16.479 17.94 16.665L18 16.69V15.62C17.6283 15.4643 17.2278 15.3893 16.825 15.4ZM10.39 12.5H9.5C9.23478 12.5 8.98043 12.3946 8.79289 12.2071C8.60536 12.0196 8.5 11.7652 8.5 11.5V10.5C8.5 10.2348 8.60536 9.98043 8.79289 9.79289C8.98043 9.60536 9.23478 9.5 9.5 9.5H10.25C10.4489 9.5 10.6397 9.57902 10.7803 9.71967C10.921 9.86032 11 10.0511 11 10.25L11.175 11.28L10.39 12.5Z" fill="white"/>
</g>
</g>
</g>
</g>
</svg>
