<svg width="26" height="26" viewBox="0 0 26 26" fill="none" xmlns="http://www.w3.org/2000/svg">
<g id="default / taxi">
<g id="POI-base">
<g id="Category_Master">
<g id="Baseshape_Dot">
<path id="Outline Outside" d="M4.5 12C4.5 7.30558 8.30558 3.5 13 3.5C17.6944 3.5 21.5 7.30558 21.5 12C21.5 16.6944 17.6944 20.5 13 20.5C8.30558 20.5 4.5 16.6944 4.5 12Z" fill="#6BC9FF" stroke="#4A91C5"/>
</g>
</g>
<g id="Icon_Master">
<g id="taxi">
<path id="Vector" d="M17.75 11.5H16.89L16.39 10.35C16.2838 10.1013 16.1078 9.88863 15.8833 9.73778C15.6588 9.58694 15.3954 9.50435 15.125 9.5H14.72L14.53 8.05C14.5167 7.90348 14.4505 7.76681 14.3438 7.66558C14.237 7.56434 14.097 7.50548 13.95 7.5H12.05C11.903 7.50548 11.763 7.56434 11.6562 7.66558C11.5495 7.76681 11.4833 7.90348 11.47 8.05L11.28 9.5H10.89C10.6218 9.50598 10.3612 9.58941 10.1394 9.74023C9.91756 9.89105 9.74413 10.1028 9.64 10.35L9.14 11.5H8.25C8.17238 11.5582 8.10938 11.6337 8.06598 11.7205C8.02259 11.8073 8 11.903 8 12C8 12.097 8.02259 12.1927 8.06598 12.2795C8.10938 12.3663 8.17238 12.4418 8.25 12.5H8.5V15.5C8.5 15.6326 8.55268 15.7598 8.64645 15.8536C8.74021 15.9473 8.86739 16 9 16H10.5C10.6326 16 10.7598 15.9473 10.8536 15.8536C10.9473 15.7598 11 15.6326 11 15.5V15H15V15.5C15 15.6326 15.0527 15.7598 15.1464 15.8536C15.2402 15.9473 15.3674 16 15.5 16H17C17.1326 16 17.2598 15.9473 17.3536 15.8536C17.4473 15.7598 17.5 15.6326 17.5 15.5V12.5H17.75C17.8276 12.4418 17.8906 12.3663 17.934 12.2795C17.9774 12.1927 18 12.097 18 12C18 11.903 17.9774 11.8073 17.934 11.7205C17.8906 11.6337 17.8276 11.5582 17.75 11.5ZM11 14H9.75C9.67238 13.9418 9.60938 13.8663 9.56598 13.7795C9.52259 13.6927 9.5 13.597 9.5 13.5C9.5 13.403 9.52259 13.3073 9.56598 13.2205C9.60938 13.1337 9.67238 13.0582 9.75 13H11V14ZM10 12L10.555 10.755C10.5806 10.6849 10.6258 10.6236 10.6851 10.5784C10.7445 10.5332 10.8156 10.506 10.89 10.5H15.125C15.2001 10.5057 15.272 10.5327 15.3322 10.5779C15.3925 10.6231 15.4385 10.6845 15.465 10.755L16 12H10ZM16.25 14H15V13H16.25C16.3276 13.0582 16.3906 13.1337 16.434 13.2205C16.4774 13.3073 16.5 13.403 16.5 13.5C16.5 13.597 16.4774 13.6927 16.434 13.7795C16.3906 13.8663 16.3276 13.9418 16.25 14Z" fill="white"/>
</g>
</g>
</g>
</g>
</svg>
