<svg width="26" height="26" viewBox="0 0 26 26" fill="none" xmlns="http://www.w3.org/2000/svg">
<g id="default / tourist-information">
<g id="POI-base">
<g id="Category_Master">
<g id="Baseshape_Pin">
<path id="shape" d="M9.12903 20.4794L9.12726 20.4777C6.78964 18.19 5.64527 16.3664 5.07698 14.8457C4.50986 13.3281 4.5 12.0735 4.5 10.8565C4.5 6.24879 8.30485 2.5 12.9913 2.5C17.6791 2.5 21.5 6.25003 21.5 10.8565C21.5 12.0735 21.4901 13.3281 20.923 14.8457C20.3547 16.3664 19.2104 18.19 16.8728 20.4777L16.8717 20.4787L12.992 24.2977L9.12903 20.4794Z" fill="#A0B1DA" stroke="#7182AB"/>
</g>
</g>
<g id="Icon_Master">
<g id="tourist-information">
<path id="Vector" d="M14 15.0001V10.5001H10.5V12.5001H12V15.0001H10V17.0001H15.5V15.0001H14ZM14.35 8.50009C14.35 8.76709 14.2708 9.0281 14.1225 9.25011C13.9741 9.47211 13.7633 9.64514 13.5166 9.74732C13.2699 9.8495 12.9985 9.87624 12.7366 9.82415C12.4748 9.77206 12.2342 9.64348 12.0454 9.45468C11.8566 9.26588 11.728 9.02533 11.6759 8.76346C11.6238 8.50158 11.6506 8.23014 11.7528 7.98346C11.8549 7.73678 12.028 7.52594 12.25 7.3776C12.472 7.22926 12.733 7.15009 13 7.15009C13.358 7.15009 13.7014 7.29232 13.9546 7.54549C14.2078 7.79867 14.35 8.14204 14.35 8.50009Z" fill="white"/>
</g>
</g>
</g>
</g>
</svg>
