<svg width="26" height="26" viewBox="0 0 26 26" fill="none" xmlns="http://www.w3.org/2000/svg">
<g id="default / train">
<g id="POI-base">
<g id="Category_Master">
<g id="Baseshape_Dot">
<path id="Outline Outside" d="M4.5 12C4.5 7.30558 8.30558 3.5 13 3.5C17.6944 3.5 21.5 7.30558 21.5 12C21.5 16.6944 17.6944 20.5 13 20.5C8.30558 20.5 4.5 16.6944 4.5 12Z" fill="#6BC9FF" stroke="#4A91C5"/>
</g>
</g>
<g id="Icon_Master">
<g id="train">
<path id="Vector" d="M15.155 14.5C15.3598 14.5004 15.5625 14.4588 15.7506 14.3779C15.9387 14.2969 16.1083 14.1783 16.2488 14.0293C16.3893 13.8804 16.4979 13.7042 16.5677 13.5117C16.6376 13.3192 16.6673 13.1144 16.655 12.91L16.335 8.41C16.312 8.02798 16.1439 7.66918 15.8651 7.40706C15.5862 7.14494 15.2177 6.99931 14.835 7H11.16C10.7773 6.99931 10.4088 7.14494 10.1299 7.40706C9.85108 7.66918 9.68296 8.02798 9.66 8.41L9.34 12.91C9.32771 13.1144 9.35741 13.3192 9.42727 13.5117C9.49714 13.7042 9.60568 13.8804 9.74621 14.0293C9.88674 14.1783 10.0563 14.2969 10.2444 14.3779C10.4325 14.4588 10.6352 14.5004 10.84 14.5H11L8.5 17H10L12.25 14.5H13.75L16 17H17.5L15 14.5H15.155ZM11.75 13.25H10.855C10.7867 13.2501 10.7192 13.2363 10.6565 13.2093C10.5938 13.1823 10.5372 13.1428 10.4904 13.0931C10.4436 13.0435 10.4074 12.9847 10.3841 12.9206C10.3608 12.8564 10.3509 12.7881 10.355 12.72V12.47C10.3627 12.3427 10.4187 12.2231 10.5116 12.1357C10.6046 12.0483 10.7274 11.9998 10.855 12H11.75V13.25ZM10.5 10.75L10.645 8.5C10.6511 8.36936 10.7057 8.24568 10.7982 8.1532C10.8907 8.06072 11.0144 8.00609 11.145 8H14.805C14.94 7.99985 15.0699 8.05172 15.1677 8.14483C15.2654 8.23794 15.3236 8.36514 15.33 8.5L15.5 10.75H10.5ZM14.25 13.25V12H15.125C15.2526 11.9998 15.3754 12.0483 15.4684 12.1357C15.5613 12.2231 15.6173 12.3427 15.625 12.47V12.72C15.6291 12.7881 15.6192 12.8564 15.5959 12.9206C15.5726 12.9847 15.5364 13.0435 15.4896 13.0931C15.4428 13.1428 15.3862 13.1823 15.3235 13.2093C15.2608 13.2363 15.1933 13.2501 15.125 13.25H14.25Z" fill="white"/>
</g>
</g>
</g>
</g>
</svg>
