<svg width="26" height="26" viewBox="0 0 26 26" fill="none" xmlns="http://www.w3.org/2000/svg">
<g id="default / zoo">
<g id="POI-base">
<g id="Category_Master">
<g id="Baseshape_Pin">
<path id="shape" d="M9.12903 20.4794L9.12726 20.4777C6.78964 18.19 5.64527 16.3664 5.07698 14.8457C4.50986 13.3281 4.5 12.0735 4.5 10.8565C4.5 6.24879 8.30485 2.5 12.9913 2.5C17.6791 2.5 21.5 6.25003 21.5 10.8565C21.5 12.0735 21.4901 13.3281 20.923 14.8457C20.3547 16.3664 19.2104 18.19 16.8728 20.4777L16.8717 20.4787L12.992 24.2977L9.12903 20.4794Z" fill="#45BF94" stroke="#308C7A"/>
</g>
</g>
<g id="Icon_Master">
<g id="zoo">
<path id="Vector" d="M18 9.875C18.0007 9.49727 17.9267 9.12312 17.7825 8.77401C17.6382 8.4249 17.4265 8.1077 17.1594 7.8406C16.8923 7.5735 16.5751 7.36176 16.226 7.21751C15.8769 7.07326 15.5027 6.99935 15.125 7H13.81C14.1854 7.34986 14.4847 7.77322 14.6894 8.24374C14.8942 8.71426 14.9999 9.22188 15 9.735V12H14V9.735C14 8.315 13 7 11.545 7H10.75C10.0211 7.00133 9.32236 7.29148 8.80692 7.80692C8.29148 8.32236 8.00132 9.02106 8 9.75C8 10.14 8 14.25 8 14.25C8.00394 14.9781 8.29494 15.6753 8.80981 16.1902C9.32468 16.7051 10.0219 16.9961 10.75 17H11V15.5C10.7134 15.4962 10.4367 15.3951 10.215 15.2135C9.9934 15.0318 9.84001 14.7802 9.78 14.5C9.7425 14.3387 9.73755 14.1716 9.76544 14.0083C9.79333 13.8451 9.85351 13.6891 9.94244 13.5494C10.0314 13.4097 10.1473 13.2892 10.2834 13.1949C10.4195 13.1005 10.573 13.0343 10.735 13L12 12.75V17H14V14.5L16 14.765V17H17.75L18 10V9.875ZM10.25 11C10.1017 11 9.95666 10.956 9.83332 10.8736C9.70999 10.7912 9.61386 10.6741 9.55709 10.537C9.50032 10.4 9.48547 10.2492 9.51441 10.1037C9.54335 9.9582 9.61478 9.82456 9.71967 9.71967C9.82456 9.61478 9.9582 9.54335 10.1037 9.51442C10.2492 9.48548 10.4 9.50033 10.537 9.55709C10.6741 9.61386 10.7912 9.70999 10.8736 9.83333C10.956 9.95666 11 10.1017 11 10.25C11 10.4489 10.921 10.6397 10.7803 10.7803C10.6397 10.921 10.4489 11 10.25 11Z" fill="white"/>
</g>
</g>
</g>
</g>
</svg>
