<svg id="Capa_1" enable-background="new 0 0 512 512" height="512" viewBox="0 0 512 512" width="512" xmlns="http://www.w3.org/2000/svg"><path d="m230.988 256.011c24.814 0 45.002-20.188 45.002-45.002s-20.187-45.002-45.002-45.002-45.002 20.188-45.002 45.002 20.188 45.002 45.002 45.002zm0-60.002c8.272 0 15.001 6.729 15.001 15.001 0 8.271-6.729 15.001-15.001 15.001s-15.001-6.729-15.001-15.001c.001-8.272 6.73-15.001 15.001-15.001z"/><path d="m345.993 121.005c0 24.814 20.187 45.002 45.002 45.002 24.814 0 45.002-20.188 45.002-45.002s-20.187-45.002-45.002-45.002-45.002 20.188-45.002 45.002zm60.003 0c0 8.271-6.729 15.001-15.001 15.001s-15.001-6.729-15.001-15.001 6.729-15.001 15.001-15.001c8.272.001 15.001 6.73 15.001 15.001z"/><path d="m218.988 316.014c-24.814 0-45.002 20.188-45.002 45.002s20.187 45.002 45.002 45.002 45.002-20.188 45.002-45.002-20.188-45.002-45.002-45.002zm0 60.003c-8.272 0-15.001-6.729-15.001-15.001s6.729-15.001 15.001-15.001 15.001 6.729 15.001 15.001-6.729 15.001-15.001 15.001z"/><path d="m313.526 256.215-180.007 30.001c-8.172 1.362-13.693 9.091-12.331 17.262 1.362 8.176 9.095 13.694 17.262 12.331l180.007-30.001c8.172-1.362 13.693-9.091 12.331-17.262-1.362-8.173-9.098-13.695-17.262-12.331z"/><path d="m507.606 80.397-76.003-76.003c-2.813-2.813-6.628-4.394-10.607-4.394h-117.005c-3.984 0-7.804 1.585-10.618 4.404l-280.213 280.789c-17.547 17.546-17.547 46.096 0 63.642l150.006 150.007c17.546 17.545 46.096 17.545 63.649-.008l280.799-281.226c2.809-2.813 4.386-6.625 4.386-10.599v-116.005c0-3.978-1.58-7.794-4.394-10.607zm-25.607 120.405-276.405 276.825c-5.849 5.849-15.365 5.848-21.214 0l-150.006-150.006c-5.844-5.845-5.886-15.327.011-21.226l275.83-276.394h104.569l67.216 67.216v103.585z"/></svg>